<?xml version="1.0" encoding="utf-8"?>
<!-- Generator: Adobe Illustrator 21.0.2, SVG Export Plug-In . SVG Version: 6.00 Build 0)  -->
<svg version="1.1" id="Layer_1" xmlns="http://www.w3.org/2000/svg" xmlns:xlink="http://www.w3.org/1999/xlink" x="0px" y="0px"
	 viewBox="0 0 150 150" style="enable-background:new 0 0 150 150;" xml:space="preserve">
<style type="text/css">
	.st0{fill:#797979;}
</style>
<g>
	<path class="st0" d="M98.9,16.3c-0.3-1.3-0.7-2.6-1-4c-0.1-0.8-0.3-1.8-1.2-2c-2.6-0.6-5.4,0.8-7.8,1.8c-7.1,2.7-14.2,5.3-21.4,7.9
		c-6.8,2.4-13.5,5-20.3,7.6c-3.5,1.3-6.9,2.7-10.4,4.1c-2,0.8-5,1.5-6.3,3.5c-0.2,0.4,0.3,0.7,0.6,0.3c1.6-2.3,5.9-3.1,8.3-4.1
		c2.9-1.2,5.9-2.3,8.8-3.4c5.7-2.2,11.4-4.1,17.1-6.3c5.8-2.2,11.7-4.3,17.6-6.5c3.2-1.2,6.4-2.3,9.6-3.4c1.7-0.6,3.9-1.6,4.5,0.8
		c0.3,1.3,0.7,2.8,1,4.1c0.1,0.5,0.8,0.4,0.8-0.1v-0.1C98.9,16.4,98.9,16.4,98.9,16.3z"/>
	<path class="st0" d="M112,17.9c-0.6-0.2-0.8,0.7-0.2,0.9c1.6,0.6-0.6,1.2-1.1,1.3c-1.9,0.9-3.9,1.6-5.9,2.4
		c-3.7,1.4-7.5,2.8-11.2,4.3c-7.5,3-15,5.9-22.4,9c-3.8,1.6-7.7,3-11.5,4.4c-4,1.5-8,3.2-12.1,4.3c-3.9,1-7.9,0.7-11.4-1.4
		c-1.9-1.1-3.4-2.7-4.5-4.5c-0.4-0.7-1-2.4-0.4-3.1c0,0,0,0,0-0.1c0.2-0.2,0.1-0.7-0.2-0.7l-0.1,0c-0.2,0-0.4,0.2-0.4,0.4
		c0,0.5-0.4,1.6-0.3,2.3c0.2,1.6,1.4,3,2.4,4.2c2.3,2.7,5.8,4.2,9.3,4.4c5.1,0.3,9.5-1.7,14.2-3.4c5.1-1.9,10.2-3.7,15.2-5.8
		c9.3-3.9,18.7-7.5,28.1-11.2c2.3-0.9,4.6-1.9,6.9-2.7c1.8-0.6,4.2-1.3,5.8-2.3C113.8,19.7,113.7,18.4,112,17.9z"/>
	<path class="st0" d="M115.9,117.4c-0.2,0-0.3,0.1-0.5,0.1c-0.4,0.3-1.2,0.5-1.4,0.6c-1.9,0.9-3.9,1.6-5.9,2.4
		c-3.7,1.4-7.5,2.8-11.2,4.3c-7.5,3-15,5.9-22.4,9c-3.8,1.6-7.7,3-11.5,4.4c-4,1.5-8,3.2-12.1,4.3c-3.9,1-7.9,0.7-11.4-1.4
		c-1.9-1.1-3.4-2.7-4.5-4.5c-0.4-0.7-1-2.4-0.4-3.1c0,0,0,0,0-0.1c0.2-0.2,0.1-0.7-0.2-0.7l-0.1,0c-0.2,0-0.4,0.2-0.4,0.4
		c0,0.5-0.4,1.6-0.3,2.3c0.2,1.6,1.4,3,2.4,4.2c2.3,2.7,5.8,4.2,9.3,4.4c5.1,0.3,9.5-1.7,14.2-3.4c5.1-1.9,10.2-3.7,15.2-5.8
		c9.3-3.9,18.7-7.5,28.1-11.2c2.3-0.9,4.6-1.9,6.9-2.7c1.8-0.6,4.2-1.3,5.8-2.3c0.7-0.4,1-0.9,1-1.4
		C116.4,117.3,116.2,117.4,115.9,117.4z"/>
	<path class="st0" d="M34.4,32.9c-1.4,0.3-2.6,0.7-3.6,1.8c-0.7,0.8-1.1,2.4-0.1,3.1c0.1,0.1,0.3-0.1,0.3-0.2
		c-0.4-1.4,0.2-2.3,1.2-3.2c0.7-0.6,1.5-1,2.3-1.4C34.6,33,34.5,32.9,34.4,32.9z"/>
	<path class="st0" d="M97.3,11.3L97.3,11.3c-0.3-0.3-0.6-0.2-0.7,0c-2.2,1-4.8,1.6-7.1,2.3c-2.7,0.9-5.5,1.8-8.2,2.8
		c-5.5,1.9-10.8,4.1-16.3,6c-6.6,2.3-13.3,4.8-19.8,7.5c-2.8,1.2-5.8,2.3-8.6,3.3c-1.3,0.5-3.8,0.9-4.2,2.6
		c-0.1,0.4,0.5,0.6,0.7,0.2c0.4-1,2.7-1.6,3.8-2c1.2-0.4,2.5-0.8,3.6-1.4c2.8-1.4,5.9-2.3,8.8-3.4c6.5-2.5,13-4.8,19.5-7.2
		c4.7-1.8,9.5-3.6,14.3-5.2c2.5-0.8,5-1.7,7.5-2.5c2.2-0.8,4.6-1.3,6.8-2.3C97.5,11.9,97.5,11.5,97.3,11.3z"/>
	<path class="st0" d="M111.8,17.8L111.8,17.8c-0.2,0-0.3,0.1-0.4,0.1c-3,1.5-6.3,2.7-9.5,3.7c-2.7,0.9-5.3,2.2-8,3.1
		c-2.4,0.8-4.9,1.9-7.2,2.9c-2.9,1.3-6,2.2-8.9,3.5C71.6,34,65.2,36,59,38.5c-5.7,2.3-11.3,4.4-17.5,5.1c-0.1,0-0.2,0.2-0.1,0.2
		c2,0.8,4.7,0,6.7-0.5c3.1-0.7,5.9-2.2,8.9-3.2c6.4-2.2,12.6-4.8,18.9-7.2c2.9-1.1,5.8-2.4,8.7-3.5c2.7-1.1,5.7-2,8.3-3.3
		c6.1-3,13-4.4,19-7.5C112.5,18.5,112.2,17.8,111.8,17.8z"/>
	<path class="st0" d="M46.4,43.2c-2.8,0.7-4.9,0.3-7.4-1c-2.7-1.4-6.4-3.3-5.6-7c0-0.2-0.2-0.4-0.4-0.2c-2.3,2.6,1.8,6,3.8,7.3
		c3,1.8,6.5,2.8,9.7,1.3C46.8,43.5,46.6,43.1,46.4,43.2z"/>
	<path class="st0" d="M108.2,19.7c-1.4-0.6-3.1-0.4-4.6-0.8c-2.5-0.6-5.9-2.3-6.9-4.8c-0.1-0.3-0.7-0.3-0.7,0.1
		c0.1,2,2.6,3.7,4.2,4.5c2.5,1.3,5,1.3,7.6,1.9C108.3,20.7,108.7,19.9,108.2,19.7z"/>
	<path class="st0" d="M96.2,14c-10.5,3.8-20.8,8-31.3,11.7c-5.6,2-11,4.3-16.6,6.5c-2.8,1.1-5.6,2.1-8.4,3.2
		c-2.1,0.8-4.8,1.4-6.7,2.6c-0.4,0.3-0.1,1,0.4,0.7c1.9-1.1,4.4-1.7,6.5-2.5c2.8-1,5.6-2.1,8.4-3.2c5.6-2.1,11-4.5,16.6-6.5
		c10.4-3.7,20.7-7.8,31.1-11.6c0.1,0,0.2,0,0.3-0.1c0,0,0,0,0.1-0.1C97,14.5,96.6,13.8,96.2,14z"/>
	<path class="st0" d="M96.7,15.4c-9.9,4.2-20.2,7.8-30.3,11.5c-4.6,1.7-9.1,3.6-13.6,5.5c-4.8,2-9.7,3.7-14.4,5.9
		c-0.1,0,0,0.2,0.1,0.1c4.6-1.2,9.2-3.5,13.6-5.3c5.1-2.1,10.1-4.2,15.3-6.1c5.4-2,10.9-4,16.3-6c4.4-1.7,9.1-3,13.3-5.2
		C97.5,15.8,97.1,15.3,96.7,15.4z"/>
	<path class="st0" d="M104.3,19.2L104.3,19.2c-0.2,0-0.2,0-0.3,0.1c-3.9,1.1-7.8,2.7-11.5,4.2c-4.4,1.8-8.9,3.4-13.3,5.1
		c-4.3,1.7-8.6,3.4-12.9,5.3c-4.5,2-9.1,4.3-13.8,5.9c-0.2,0.1-0.1,0.4,0.1,0.3c4.4-1.4,8.8-3.6,13.1-5.4c4.6-1.9,9.1-3.7,13.7-5.5
		c8.3-3.1,16.6-6.8,25.1-9.2C104.9,19.9,104.8,19.2,104.3,19.2z"/>
	<path class="st0" d="M97.2,16.3c0,0-0.1,0-0.1,0.1c-0.1,0-0.1,0.1-0.1,0.1c-1.8,1.2-4.5,1.7-6.4,2.5C87.7,19.9,84.8,21,82,22
		c-5.6,2-11.1,4-16.6,6.1c-5.2,2-10.2,4.3-15.3,6.4c-2.3,0.9-4.5,2-6.7,2.9c-1.8,0.8-4.6,1.2-6.1,2.4c-0.2,0.1,0,0.4,0.2,0.3
		c1.5-0.9,3.8-1.2,5.4-1.9c2.5-1,4.9-2.2,7.4-3.2c5.4-2.2,10.8-4.6,16.2-6.7c5.5-2.1,11.1-4,16.7-6c2.8-1,5.7-2,8.5-3.1
		c1.9-0.7,4.4-1.2,6.1-2.4C98,16.6,97.7,16,97.2,16.3z"/>
	<path class="st0" d="M100.1,17.8C100,17.8,100,17.8,100.1,17.8c-0.1,0-0.1,0-0.2,0.1c0,0,0,0,0,0c-1.8,1.1-4,1.7-6,2.5
		c-2.6,1-5.1,1.9-7.7,2.9c-5.2,2-10.4,4.2-15.7,6.1c-4.5,1.7-8.8,3.6-13.3,5.3c-4.8,1.8-9.6,4.1-14.5,5.6c-0.1,0-0.1,0.2,0,0.2
		c5-1.3,9.8-3.5,14.6-5.3c4.8-1.8,9.4-3.8,14.2-5.5c5.3-1.9,10.5-4,15.7-6c2.5-1,5.1-1.9,7.6-2.9c1.7-0.7,3.9-1.1,5.3-2.4
		C100.5,18.2,100.4,17.8,100.1,17.8z"/>
	<path class="st0" d="M85.7,25.3c-8.2,2-16,5.9-23.8,9c-4.1,1.6-8.3,3.2-12.4,4.8c-3.2,1.3-6.8,2.2-9.8,3.8c-0.3,0.2,0,0.7,0.3,0.5
		c3.3-1.5,7-2.7,10.4-4.1c4.2-1.7,8.4-3.2,12.5-4.8c7.6-3,15.1-6.4,22.9-9C85.9,25.5,85.9,25.2,85.7,25.3z"/>
	<path class="st0" d="M36.4,138c-1.3-1.6-1.4-3.9-1.7-5.8c-0.4-2.6-0.6-5.3-0.9-7.9c-0.4-4.3-0.4-8.7-0.5-13
		c-0.1-4.3-0.2-8.6-0.4-12.9c-0.2-4.3-0.5-8.5-0.6-12.8C32.1,77.1,32.2,68.5,32,60c-0.1-4,0-8-0.4-12c-0.4-4-0.8-8.1-0.8-12.1
		c0-0.4-0.5-0.4-0.6-0.1c-0.6,1.8-0.2,3.8-0.2,5.7c0,2.2,0.3,4.4,0.6,6.5c0.5,4.2,0.3,8.5,0.4,12.8c0.1,9.1-0.3,18.3,0.4,27.4
		c0.7,9.3,0.3,18.6,1.1,27.9c0.4,4.5,0.3,9.1,0.9,13.6c0.3,2.6,0.2,7.4,2.7,8.9C36.3,138.7,36.6,138.3,36.4,138z"/>
	<path class="st0" d="M48.4,142.7c0-0.1,0-0.2-0.1-0.3c-1.4-8.1-1.3-16.7-1.8-24.9c-0.5-8.3-0.4-16.5-0.4-24.8
		c0-7.8-0.5-15.7-0.8-23.6c-0.3-7.9-0.3-15.8-0.9-23.8c0-0.4-0.6-0.4-0.7,0c-0.3,4,0.3,8.2,0.3,12.3c0,3.8,0,7.7,0.2,11.5
		c0.3,7.8,0.8,15.7,0.8,23.6c0,8.3,0,16.5,0.4,24.8c0.5,8.4,0.3,17.2,1.9,25.6c0.1,0.6,1,0.4,1-0.1
		C48.4,142.8,48.4,142.8,48.4,142.7z"/>
	<path class="st0" d="M117.4,116.2c-0.5-2.1-0.2-4.5-0.2-6.6c0-1.9-0.1-3.9-0.1-5.8c0-9.6,0-19.2-0.3-28.8
		c-0.2-9.6-0.6-19.1-1.3-28.6c-0.7-9.1-0.5-18.5-2.2-27.4c-0.1-0.4-0.7-0.3-0.7,0.1c0.6,8.2,0.9,16.4,1.5,24.6
		c0.6,8.8,1.2,17.6,1.5,26.5c0.3,9.1,0.2,18.2,0.2,27.3c0,3.8-0.1,7.7,0.2,11.5c0.2,1.9,0,3.8,0.1,5.7c0,0.4,0.3,2.3,0,2.6
		c-0.4,0.4-1,0.7-1.6,1c-0.2,0.1-0.1,0.4,0.1,0.4C116,118.5,117.9,118,117.4,116.2z"/>
	<path class="st0" d="M117.3,116.1c-0.1-0.2-0.5-0.1-0.5,0.1c0,0.3-0.4,0.6-0.6,0.8c-0.2,0.1-0.3,0.2-0.5,0.3
		c-0.1,0.1-0.2,0.2-0.3,0.3c-0.3,0.1-0.3,0.4-0.2,0.6c0,0,0.1,0.1,0.1,0.1c0,0,0.1,0,0.2,0c0.1,0,0.2,0,0.3-0.1
		C116.5,117.6,117.8,117.2,117.3,116.1z"/>
	<path class="st0" d="M106,74.2c-5.8,2.4-11.3,5.8-17.1,8.2c-6.8,2.9-13.5,6-20.4,8.8c-1.6,0.7-3.3,1.3-4.9,1.8
		c-1.1,0.3-0.8-3.1-0.8-3.7c0.1-3.6,0-7.3,0-10.9c0-6.5-0.1-13.2-1-19.7c0-0.3-0.5-0.2-0.5,0.1c-0.3,3.6-0.1,7.7,0.3,11.3
		c0.4,3.6,0.1,7.4,0.1,11.1c0,3.6-0.3,7.3,0.1,10.8c0.2,2,1,2.3,2.8,1.7c3.6-1.1,7-2.9,10.6-4.2c3.4-1.2,6.6-2.8,9.8-4.3
		c3.5-1.7,7.1-3.3,10.6-5.1c3.5-1.7,7.5-3.1,10.6-5.4C106.6,74.6,106.4,74,106,74.2z"/>
	<path class="st0" d="M102.5,40.9c-6.9,1.8-13.4,5.2-19.8,8.1c-7.1,3.2-14.3,6.1-21.3,9.4c-0.4,0.2-0.1,0.8,0.3,0.7
		c3.4-0.9,6.7-3.1,10.1-4.4c3.3-1.3,6.6-2.7,9.8-4.1c7-3.2,14.1-6.1,21.2-9C103.1,41.4,102.9,40.8,102.5,40.9z"/>
	<path class="st0" d="M104.5,40c-1.2,0.2-2.2,0.8-3.4,1.2c-0.4,0.1-0.8,0.3-1.1,0.5c-0.3,0.1-0.6,0.5-0.9,0.6
		c-0.3,0.1-0.3,0.5,0,0.5c0.7,0.2,1.6-0.5,2.3-0.7c1.2-0.3,2.4-0.8,3.4-1.6C105,40.3,104.7,39.9,104.5,40z"/>
	<path class="st0" d="M106.2,74.6c-0.2-5.7-0.3-11.5-0.5-17.2c-0.1-3.1-0.1-6.1-0.1-9.2c-0.1-2.6,0.2-5.4-0.7-7.9
		c-0.2-0.5-0.8-0.3-0.7,0.2c0.5,2.8,0.3,5.7,0.3,8.6c0.1,2.8,0.1,5.6,0.1,8.4c0,5.8,0.2,11.6,0.5,17.4c0,0.7,1.1,0.7,1.1,0
		C106.2,74.8,106.2,74.7,106.2,74.6C106.2,74.7,106.2,74.7,106.2,74.6z"/>
	<path class="st0" d="M109,80.7c-8.4,3-16.4,7.3-24.5,10.9c-8,3.6-16.6,6.2-24.4,10.2c-0.3,0.1-0.1,0.6,0.2,0.5
		c4.1-1.3,8-3.3,12.1-4.8c4-1.5,7.8-3.1,11.7-4.8c4.2-1.8,8.3-3.8,12.5-5.6c4.2-1.9,8.7-3.6,12.6-5.9C109.5,81,109.3,80.5,109,80.7z
		"/>
	<path class="st0" d="M98.1,95.7c-4.3,1.5-8.5,3.1-12.8,4.6c-3.5,1.2-8,2-11.1,4.2c-0.3,0.2-0.1,0.7,0.2,0.6
		c7.9-3.2,16.1-5.2,23.8-8.9C98.6,96.1,98.4,95.6,98.1,95.7z"/>
	<path class="st0" d="M93.5,100.4c-4.6,1.6-9.5,2.8-13.7,5.1c-0.2,0.1-0.1,0.5,0.2,0.4c4.6-1.1,9.5-2.8,13.8-4.8
		C94.2,100.9,93.9,100.3,93.5,100.4z"/>
	<path class="st0" d="M107.9,103.3c-7.8,2.7-15.6,5.7-23.4,8.5c-7.9,2.8-16.1,5.2-23.7,8.8c-0.2,0.1-0.1,0.4,0.2,0.4
		c8-2.6,15.9-5.4,23.8-8.2c4.1-1.4,8-3.1,12.1-4.5c3.8-1.3,7.7-2.5,11.3-4.3C108.5,103.7,108.2,103.2,107.9,103.3z"/>
	<path class="st0" d="M101.5,108.4c-5.4,1.8-10.7,4.1-16.1,6c-4.7,1.6-10,2.8-14.2,5.4c-0.3,0.2,0,0.6,0.3,0.5
		c4.8-2.2,10.1-3.5,15.1-5.2c5.2-1.8,10.2-3.8,15.1-6C102.1,108.9,101.9,108.3,101.5,108.4z"/>
	<path class="st0" d="M37.3,119c-0.2-3.2-0.3-6.4-0.4-9.6c-0.2-5.9-0.4-11.8-0.7-17.8c-0.5-12.3,0-24.6-0.7-36.9
		c0-0.4-0.5-0.4-0.6,0c-0.7,12-0.3,24.2,0.2,36.1c0.3,5.9,0.5,11.8,0.7,17.6c0.1,3.2,0.1,6.4,0.3,9.5c0.2,3.2,0,6.4,0.5,9.5
		c0,0.3,0.6,0.3,0.6,0C37.8,124.8,37.5,121.8,37.3,119z"/>
	<path class="st0" d="M40,108.9c0-4.7-0.5-9.4-0.6-14c-0.1-4.8-0.1-9.5-0.4-14.3c-0.2-4.8-0.2-9.6-1.1-14.3c0-0.2-0.3-0.1-0.3,0
		c0.4,9.5,0.7,19.1,0.7,28.6c0,4.7,0.3,9.4,0.6,14c0.3,4.5-0.3,9.1,0.3,13.6c0.1,0.5,0.8,0.5,0.8,0C40.4,118,40,113.3,40,108.9z"/>
	<path class="st0" d="M41.6,95.4c-0.1-2.3-0.1-4.6-0.1-6.9c0-2.2-0.5-4.3-0.3-6.5c0-0.3-0.5-0.4-0.6-0.1c-0.3,1.9-0.2,3.7-0.1,5.6
		c0.2,2.6-0.1,5.2,0,7.9c0.2,4.3-0.5,9,0.8,13.2c0.1,0.4,0.8,0.4,0.8-0.1C41.7,104.1,41.8,99.8,41.6,95.4z"/>
</g>
</svg>
