<?xml version="1.0" encoding="utf-8"?>
<!-- Generator: Adobe Illustrator 21.0.2, SVG Export Plug-In . SVG Version: 6.00 Build 0)  -->
<svg version="1.1" id="Layer_1" xmlns="http://www.w3.org/2000/svg" xmlns:xlink="http://www.w3.org/1999/xlink" x="0px" y="0px"
	 viewBox="0 0 150 150" style="enable-background:new 0 0 150 150;" xml:space="preserve">
<style type="text/css">
	.st0{fill:#797979;}
</style>
<g>
	<path class="st0" d="M95.6,26.9c-3.9-1.1-8.2-0.9-12.2-0.7c-3.5,0.2-7.1,0.7-10.1,2.7c-1.5,1-2.3,2.9-1.7,4.4
		c0.8,4.4,10.2,4.1,13.3,4c3.3-0.1,6.6-0.5,9.8-1c2.2-0.3,6.5-1.5,6.5-4.5C101.1,28.7,98.1,27.6,95.6,26.9z M98.4,34
		c-3.4,2.3-27.2,5.1-26.2-2.2c0.5-4,10.7-5,13.5-5c2.5,0,5,0.1,7.5,0.4C95.9,27.6,103.9,30.4,98.4,34z"/>
	<path class="st0" d="M96.9,29.8c-0.3-0.2-0.6,0.2-0.5,0.5c1.3,2.7-10.2,2.7-11.4,2.7c-2.6,0.1-9.2,1.1-10.6-2
		c-0.1-0.2-0.5-0.1-0.5,0.1c0.2,4.4,10.7,2.8,13.4,2.7c2.6-0.1,5.8,0.3,8.2-0.9C96.7,32.3,98.6,30.8,96.9,29.8z"/>
	<path class="st0" d="M97.4,30.4c-0.8-1.8-3.6-1.9-5.3-2.1c-2.5-0.3-4.9-0.2-7.5-0.1c-1.2,0.1-12.5,1.2-10.3,3.6
		c0.2,0.2,0.5,0,0.5-0.2c-0.1-2.4,9.9-2.7,11.5-2.8c2.7-0.2,8.8-0.5,10.5,1.9C97.1,31.1,97.6,30.8,97.4,30.4z"/>
	<path class="st0" d="M77,44c-1.5-0.7-2.7-1.1-3.3-2.9c-0.4-1.1-0.6-2.3-0.8-3.5c-0.3-1.7-0.4-3.4-0.9-5.1c-0.1-0.2-0.3-0.2-0.3,0
		c-0.4,2.3,0.3,5.2,0.7,7.4c0.5,2.6,1.8,4.4,4.5,4.6C77.2,44.7,77.3,44.2,77,44z"/>
	<path class="st0" d="M101.1,40c-0.6,0.7-1,1.6-1.8,2c-1.2,0.7-2.7,1-4.1,1.3c-2.4,0.6-4.9,0.9-7.4,1.1c-2.3,0.2-4.7,0.1-7,0.1
		c-1.8,0-3.5-0.9-5.3-1c-0.2,0-0.3,0.2-0.2,0.3c1,1.4,3.4,1.5,4.9,1.6c3.1,0.3,6.3,0.1,9.4-0.2c2.8-0.3,5.4-0.8,8.1-1.6
		c1.9-0.6,3.5-1.3,4-3.4C101.8,40.1,101.4,39.7,101.1,40z"/>
	<path class="st0" d="M100.9,30.2c0-0.2-0.3-0.2-0.3,0c-0.5,1.6,0.4,3.5,0.5,5.1c0,1.2,0.3,2.3,0.2,3.5c-0.2,2.1-0.9,2.7-2.6,3.7
		c-0.3,0.2-0.1,0.6,0.2,0.5c2.7-0.9,3.1-2,3.4-4.8C102.4,35.5,101.6,32.6,100.9,30.2z"/>
	<path class="st0" d="M123.6,81c-2.7-6.3-6.8-11.1-12.8-14.4c-3.2-1.8-6.9-2.9-10.6-3.2c-0.6,0-0.6,0.9,0,1
		c6.3,0.8,12.9,3.8,17.2,8.7c4.6,5.3,7,11.9,7.6,18.9c1.2,14.5-12.7,25.1-25.9,26.8c-6,0.8-12,0.2-17.6-2.3
		c-6.3-2.8-9.9-8.9-12-15.2c-2.1-6.4-2.6-13.3,0.3-19.6c0.5-1.2,1-2.4,1.5-3.6c0.8-1.7,2.3-3.1,3.4-4.6c1.8-2.4,4.3-3.8,6.3-5.9
		c0.4-0.4-0.2-1-0.6-0.6c-1.9,1.9-4.3,3.1-6,5.3c-1.1,1.5-2.3,2.9-3.4,4.4c-1.1,1.6-1.7,3.4-2.4,5.1c-2.5,5.5-2.4,12.3-0.7,18
		c1.8,5.8,4.4,11.4,9.4,15.2c5.1,3.8,11.1,4.9,17.3,5c13.2,0.2,26.6-7.9,30.8-20.6C127.2,93.8,125.9,86.4,123.6,81z"/>
	<path class="st0" d="M81.3,67.1c-0.1-4.2-1-8.3-1.4-12.5c-0.2-1.8-0.4-3.7-0.7-5.5c-0.2-1.3-0.3-3.7-1.2-4.7
		c-0.2-0.3-0.6,0-0.5,0.3c0.8,3.8,1.2,7.7,1.5,11.5c0.2,1.9,0.4,3.9,0.7,5.8c0.2,1.2,0.3,2.5,0.5,3.7c0.1,0.8-0.2,1.2,0.3,0.9
		c-0.2,0.1-0.3,0.4-0.2,0.6c0,0,0,0,0,0.1c0.1,0.1,0.2,0.2,0.3,0.2c0.1,0,0.2,0,0.2-0.1C81.2,67.4,81.3,67.3,81.3,67.1z"/>
	<path class="st0" d="M80.8,66.6c-0.1-0.1-0.2-0.2-0.3-0.1c-0.1,0.1-0.2,0.2-0.2,0.3l0,0c0,0.1,0,0.2,0.1,0.3c0.2,0.2,0.5,0,0.6-0.2
		C80.9,66.8,80.9,66.7,80.8,66.6z"/>
	<path class="st0" d="M80.7,66.8c0-0.2-0.3,0-0.1,0.1c0,0,0.1,0,0.1,0.1c0,0,0.1,0,0.1,0C80.7,66.9,80.7,66.8,80.7,66.8z"/>
	<path class="st0" d="M80.7,66.8c-0.3,0-0.3,0.5,0,0.5C81,67.4,81,66.8,80.7,66.8z"/>
	<path class="st0" d="M100.8,63.7C100.8,63.7,100.8,63.7,100.8,63.7C100.8,63.7,100.8,63.7,100.8,63.7c-0.6-3.4-1-6.7-1.5-9.9
		c-0.3-2.2-0.6-4.5-0.9-6.8c-0.1-1.2,0.1-2.8-0.5-3.9c-0.2-0.3-0.7-0.2-0.7,0.2c0.1,3.3,0.4,6.5,0.9,9.8c0.5,3.6,0.9,7.3,1.7,10.8
		C100,64.5,100.9,64.3,100.8,63.7C100.8,63.8,100.8,63.8,100.8,63.7z"/>
	<path class="st0" d="M115.1,73.6c-0.7-3.4-7.9-2.5-10.4-2.4c-4.9,0.2-9.8,0.1-14.6,0.9c-4.3,0.7-8.8,1.4-12.7,3.4
		c-1,0.5-7,3.4-4.4,5.2c0,0,0.1,0,0.1,0c1.2,0.9,2.8,1.2,4.3,1.5c5.1,0.8,10.6,0.5,15.7-0.1c4.8-0.5,9.6-1.1,14.2-2.7
		c2-0.7,3.9-1.5,5.6-2.7C113.6,76.2,115.4,74.7,115.1,73.6z M113.2,74.9c-2.1,2.6-6.5,3.7-9.6,4.5c-3.7,1-7.5,1.3-11.3,1.8
		c-2.7,0.3-18.7,1.7-18.7-1.7c0,0,0,0,0,0c0.7-1.1,4.6-3,5-3.2c1.3-0.5,2.5-0.9,3.8-1.4c2.9-1.1,6.2-1.5,9.3-1.9
		c3.1-0.4,6.3-0.6,9.5-0.7c1.8,0,3.7,0,5.5-0.1C107.7,72.2,115.5,72.1,113.2,74.9z"/>
	<path class="st0" d="M121.6,85.1c-0.6-2.2-1.9-4.4-2.8-6.5c-1-2.2-2.6-4.5-4.4-6.1c-0.6-0.5-1.4,0.3-0.8,0.8
		c3.2,3,4.9,7.4,6.5,11.3c1.9,4.6,1.3,10.7-0.3,15.3c-2.8,8.2-12.4,13.4-20.5,14.9c-4.7,0.9-10.3,1.2-14.8-0.7
		c-4.3-1.9-7.3-4.9-9.8-8.8c-2.5-4-3.5-8.4-3.7-13.1c-0.1-2.1,0.1-4.1,0.3-6.2c0.3-2.2,1.4-4.3,1.9-6.5c0.1-0.5-0.7-0.8-0.8-0.2
		c-0.7,2.4-1.8,4.6-2.2,7.1c-0.3,2.2-0.4,4.3-0.3,6.5c0.1,5,1.6,9.5,4.3,13.7c2.5,4,5.9,6.9,10.2,8.8c4.3,1.9,9.9,1.4,14.4,0.7
		c4.7-0.7,9.1-2.7,13-5.3c3.7-2.4,7.2-5.7,8.7-10C122.6,95.8,123.1,90.3,121.6,85.1z"/>
	<path class="st0" d="M86.6,94.1c-0.4-0.3-0.9-0.5-1.4-0.3c-0.3,0.1-0.5,0.3-0.7,0.5c-0.7,0.3-1.1,1.5-0.7,2.1
		c0.5,0.9,1.9,1.4,2.7,0.7C87.5,96.3,87.6,94.8,86.6,94.1z M85.9,96.2c-0.3,0.4-1.1,0.1-1.3-0.3c-0.1-0.2,0-0.6,0.1-1
		c0.4-0.3,0.7-0.5,1.2-0.2C86.4,95.2,86.3,95.7,85.9,96.2z"/>
	<path class="st0" d="M93.5,85.9c-0.4-0.6-1.6-0.9-2-0.1c0,0,0,0,0,0c-0.5,0.3-0.7,1-0.4,1.6c0.3,0.7,1.3,0.8,1.9,0.5
		C93.8,87.5,93.9,86.6,93.5,85.9z M92.6,87c-0.2,0.1-0.6,0.1-0.7-0.1c-0.2-0.2,0-0.5,0.2-0.7c0.2,0,0.5,0.1,0.6,0.2
		C92.8,86.6,92.8,86.9,92.6,87z"/>
	<path class="st0" d="M103.1,91.9c-0.5-0.6-1-0.8-1.7-0.8c-0.4,0-0.6,0.2-0.8,0.4c-0.9,0.5-1.1,1.5-1,2.5c0.2,1.3,2,1.7,3,1.1
		C103.8,94.5,104.1,93,103.1,91.9z M102,94.4c-0.6,0.5-1.5,0-1.6-0.7c-0.1-0.5,0.1-1,0.4-1.3c0.5-0.3,1-0.3,1.5,0.2
		C103,93.2,102.7,93.9,102,94.4z"/>
	<path class="st0" d="M110.4,87c-0.2-0.3-0.5-0.6-0.9-0.7c-0.2,0-0.3,0-0.4,0.1h0c0,0,0,0,0,0c0,0-0.1,0-0.1,0.1
		c-0.6,0.3-1.2,0.8-1,1.5c0.2,0.7,1,1.2,1.7,1C110.4,88.6,110.9,87.8,110.4,87z M109.2,88.1c-0.2,0-0.4-0.2-0.5-0.4
		c-0.1-0.2,0.1-0.4,0.3-0.6c0.3,0,0.5,0,0.7,0.3C109.9,87.7,109.5,88.1,109.2,88.1z"/>
	<path class="st0" d="M97.9,106.7c-0.7,0-1.4,0.4-1.6,1c-0.3,0.3-0.4,0.6-0.5,1c-0.1,0.5,0.3,1.1,0.7,1.4c1.2,0.8,2.7,0.5,3.2-0.8
		C100.1,108.1,99.1,106.7,97.9,106.7z M98.8,108.9c-0.1,0.9-1.2,0.9-1.8,0.4c-0.2-0.2-0.3-0.4-0.3-0.6c0.2-0.5,0.3-1,1-1
		C98.3,107.6,98.9,108.1,98.8,108.9z"/>
	<path class="st0" d="M110.8,103.3c-0.3-0.5-1.1-0.9-1.5-0.5c-0.4,0.1-0.7,0.5-0.7,1c0,0.6,0.7,1.3,1.4,1.1
		C110.7,104.7,111.2,104,110.8,103.3z M110,104c-0.2,0.2-0.4,0-0.5-0.2c0-0.1,0-0.2,0.1-0.2c0.1,0,0.1,0,0.2,0
		C110,103.5,110.2,103.8,110,104z"/>
	<path class="st0" d="M84.2,107.5c-0.1-0.7-1.1-1-1.6-0.8c-0.5,0.2-0.5,0.6-0.4,0.9c0,0.4,0.3,0.9,0.7,1
		C83.7,108.9,84.3,108.1,84.2,107.5z M83.4,107.8c-0.2,0.4-0.7,0-0.6-0.4c0.1-0.1,0.2-0.1,0.4,0C83.4,107.5,83.5,107.6,83.4,107.8z"
		/>
	<path class="st0" d="M78.3,86.3c-0.5-0.4-1.1-0.3-1.7-0.1c-0.2,0.1-0.3,0.2-0.3,0.3c-0.4,0.4-0.6,1.2-0.4,1.7
		c0.4,1,1.6,1.5,2.5,0.8c0.4-0.3,0.7-0.8,0.7-1.3C79.2,87.2,78.8,86.7,78.3,86.3z M77.9,88.2c-0.3,0.5-0.9,0.2-1.1-0.1
		c-0.1-0.2-0.2-0.4-0.1-0.5c0,0,0,0,0,0c0.1-0.4,0.6-0.7,1-0.4C78.1,87.5,78.2,87.8,77.9,88.2z"/>
	<path class="st0" d="M100.4,74.3c-0.5-0.3-1.3-0.2-1.7,0.2c-0.2,0.1-0.3,0.3-0.4,0.4c0,0,0,0,0,0c-0.7,0.4-0.7,1.1-0.4,1.8
		c0.4,1.2,2,1.9,3,1.1C102.1,76.8,101.8,75,100.4,74.3z M100.3,77c-0.5,0.5-1.2,0-1.5-0.4c-0.1-0.2-0.2-0.3-0.2-0.5
		c0.2-0.5,0.4-0.8,1-0.9c0.4,0,0.7,0.3,0.9,0.6C100.8,76.2,100.6,76.6,100.3,77z"/>
	<path class="st0" d="M94.3,78.1c-0.4-0.9-1.6-0.8-2-0.1c-0.2,0.1-0.3,0.3-0.3,0.5c0,0.3,0.2,0.6,0.4,0.8c0,0,0,0,0,0
		c0,0,0.1,0.1,0.1,0.1c0.1,0.1,0.3,0.2,0.5,0.2C93.8,79.9,94.7,79,94.3,78.1z M93,79c-0.2-0.1-0.3-0.2-0.3-0.4
		c0-0.4,0.4-0.6,0.7-0.4C94,78.5,93.5,79.1,93,79z"/>
	<path class="st0" d="M83.9,75.6c-0.4,0-0.9,0.4-1,0.7c-0.1,0.1-0.1,0.3-0.1,0.4c-0.2,0.5,0.1,1.1,0.6,1.4c0.8,0.6,2-0.1,2.2-1
		C85.7,76.2,84.7,75.5,83.9,75.6z M84,77.5c-0.2,0-0.4-0.1-0.5-0.3c0-0.1,0-0.2-0.1-0.3c0-0.1,0-0.1,0-0.1c0-0.1,0.1-0.1,0.1-0.2
		c0.1-0.1,0.2-0.1,0.3-0.2c0.3-0.1,0.8,0.2,0.8,0.6C84.7,77.2,84.3,77.4,84,77.5z"/>
	<path class="st0" d="M93.5,65.5c-0.6-0.3-1.2-0.4-1.8-0.1c-0.1,0-0.1,0.1-0.2,0.1c-0.2,0.1-0.5,0.3-0.6,0.5
		c-0.3,0.5-0.3,1.1-0.1,1.7c0.5,1.1,2,1.6,3,0.8C94.8,67.8,94.6,66.2,93.5,65.5z M93.2,67.8c-0.4,0.4-1.1,0.2-1.4-0.2
		c-0.3-0.2-0.3-0.5-0.2-0.8c0,0,0.1,0,0.1,0c0.1-0.1,0.2-0.2,0.2-0.4c0.2-0.5,0.9-0.3,1.2,0C93.5,66.8,93.7,67.3,93.2,67.8z"/>
	<path class="st0" d="M86.4,58.5c-0.4,0-0.7,0-1,0.3c-0.1,0.1-0.2,0.2-0.2,0.3c-0.2,0.2-0.3,0.4-0.3,0.7c0,0.4,0.3,0.8,0.7,1.1
		c0.7,0.4,1.6,0,2-0.7C88,59.5,87.2,58.6,86.4,58.5z M86.8,60c-0.5,0.6-1.4,0.2-1-0.5c0.1-0.2,0.3-0.3,0.5-0.2
		C86.7,59.2,87,59.7,86.8,60z"/>
	<path class="st0" d="M92.5,50.6c-0.5-0.1-1,0.2-1.2,0.6c-0.3,0.3-0.5,0.9-0.1,1.3c0.5,0.5,1.3,0.6,1.8,0
		C93.4,51.8,93.2,50.8,92.5,50.6z M92.3,52c-0.1,0.1-0.4,0-0.6,0c-0.1-0.1-0.1-0.2-0.1-0.3c0.1-0.2,0.4-0.5,0.6-0.4
		C92.6,51.5,92.5,51.9,92.3,52z"/>
	<path class="st0" d="M85.7,47.4c-0.4,0-0.8,0.3-0.8,0.6c-0.1,0.2-0.1,0.5,0,0.7c0.2,0.3,0.5,0.4,0.9,0.5c0.4,0,0.6-0.3,0.8-0.6
		C87,48.1,86.3,47.5,85.7,47.4z M85.4,48.4c0-0.1,0.1-0.3,0.2-0.3c0.1-0.1,0.6,0.1,0.5,0.3C85.8,48.8,85.5,48.6,85.4,48.4z"/>
</g>
</svg>
