<?xml version="1.0" encoding="utf-8"?>
<!-- Generator: Adobe Illustrator 21.0.2, SVG Export Plug-In . SVG Version: 6.00 Build 0)  -->
<svg version="1.1" id="Layer_1" xmlns="http://www.w3.org/2000/svg" xmlns:xlink="http://www.w3.org/1999/xlink" x="0px" y="0px"
	 viewBox="0 0 150 150" style="enable-background:new 0 0 150 150;" xml:space="preserve">
<style type="text/css">
	.st0{fill:#797979;}
</style>
<g>
	<path class="st0" d="M79.8,53.8c0-1.9-0.3-4-0.7-5.9c-0.8-3.9-2.5-8-5.1-11c-2.4-2.9-5.5-5.6-8.7-7.6c-1.5-0.9-3.2-1.4-4.8-2
		c-2.1-0.9-4.5-1.3-6.8-1.7c-3.9-0.7-7.7-0.3-11.5-0.1c-1.9,0.1-3.9,0.9-5.8,1.4c-1.9,0.6-3.7,1.3-5.5,2.3c-3.4,1.9-6.7,4.9-9,8
		c-1.7,2.2-3.7,4.6-4.5,7.4c-0.1,0.3,0.4,0.5,0.5,0.1c0.6-1.8,1.7-3.2,2.7-4.7c1.3-1.9,2.7-3.7,4.4-5.3c3-2.9,6.1-5.5,10.1-6.9
		c7.9-2.8,17.4-3.3,25.3-0.1c1.9,0.8,3.8,1.4,5.5,2.5c1.6,1,3.4,2.4,4.7,3.9c1.4,1.6,3,2.8,4.3,4.6c1.3,1.9,2.1,4,2.8,6.1
		c1.4,3.9,1.6,8.1,1.8,12.3c0.1,2.2-0.2,4.3-0.8,6.5c-0.6,2.1-1.3,4.6-2.6,6.4c-0.1,0.2,0.2,0.5,0.3,0.3c1.1-1.3,1.5-2.9,2.1-4.4
		c0.7-2,1.2-4,1.5-6.1C80.3,57.9,79.9,55.8,79.8,53.8z"/>
	<path class="st0" d="M74.1,72.9c-2.2,3.5-5.1,5.9-8.3,8c-3.3,2.1-6.7,4.1-10.5,5c-7.3,1.9-15.7,1.4-22.6-1.8
		c-3.3-1.5-6.3-4.2-8.9-6.9c-2.9-3-5.3-6.2-6.7-10.2c-1.3-3.7-2.1-8-1.8-11.9c0.3-3.7,0.9-7.8,2.7-11.1c0.1-0.3-0.2-0.5-0.4-0.2
		c-1,1.4-1.5,3.4-1.9,5c-0.5,1.7-0.8,3.6-0.9,5.4c-0.3,4.2,0.3,8.5,1.5,12.5c1.2,3.9,3.6,7.3,6.4,10.2c2.8,3,5.9,5.9,9.7,7.7
		c7.2,3.5,15.4,3.4,23,1.8c4-0.8,7.7-3.2,11-5.4c3.1-2,6.1-4.4,8.1-8C74.7,72.9,74.3,72.7,74.1,72.9z"/>
	<path class="st0" d="M76.4,69.9c-0.2,0.1-0.3,0.2-0.5,0.4c-0.3,0.5-0.6,0.9-0.9,1.4c-0.6,0.9-1.3,1.6-1.8,2.5
		c-0.1,0.2,0.1,0.3,0.3,0.2c0.6-0.6,1.1-1.2,1.6-1.9c0.5-0.7,1.4-1.6,1.5-2.4C76.7,70,76.6,69.9,76.4,69.9z"/>
	<path class="st0" d="M67.2,25.4c-0.3,0.4-0.4,0.5-0.7,0.9c-0.6,0.9-0.9,0.5-1.6,0.2c-1-0.4-2-0.7-2.9-1.2c-0.9-0.4-1.7-0.9-2.6-1.3
		c-0.8-0.4-0.4-1.1-0.3-1.8c0-0.1-0.1-0.3-0.2-0.1c-0.3,0.3-0.9,1.3-0.7,1.7c0.6,1,2.5,1.5,3.5,2c1.2,0.7,2.7,1.2,4,1.6
		c1,0.3,1.6-1.1,1.9-1.8C67.7,25.5,67.4,25.1,67.2,25.4z"/>
	<path class="st0" d="M67.7,24.8c-1.1-0.9-2.5-1.4-3.7-2c-1.7-0.8-5.2-2.9-5.7,0.3c0,0.2,0.2,0.3,0.3,0.1c0.4-0.8,1-1.6,2-1.3
		c1,0.3,2.1,0.9,3.1,1.4c0.8,0.4,1.6,0.8,2.5,1.2c0.2,0.1,1.2,0.5,1,0.8c-0.2,0.4-0.5,0.8-0.7,1.2c-0.1,0.2,0.2,0.5,0.4,0.3
		C67.1,26.6,68.4,25.3,67.7,24.8z"/>
	<path class="st0" d="M60,24.8c-0.4,0-0.4,0.5-0.6,0.8c-0.1,0.2-0.2,0.4-0.3,0.6c-0.1,0.1-0.1,0.4-0.3,0.5c-0.3,0.2,0.1,0.6,0.4,0.4
		c0,0,0,0,0,0c0,0,0,0,0-0.1c0-0.1,0.1-0.1,0.1-0.2c0.1-0.2,0.2-0.4,0.3-0.5c0.1-0.2,0.2-0.4,0.3-0.6c0.1-0.1,0.1-0.3,0.2-0.4
		C60.3,25.1,60.2,24.8,60,24.8z"/>
	<path class="st0" d="M64.1,26.6c-0.3,0.1-0.5,0.6-0.7,0.8c-0.2,0.3-0.6,0.8-0.4,1.2c0.1,0.2,0.3,0.2,0.4,0.1
		c0.1-0.1,0.1-0.2,0.2-0.3c0.1-0.2,0.2-0.4,0.3-0.6c0.1-0.2,0.2-0.3,0.3-0.5c0-0.1,0.1-0.3,0.1-0.3C64.4,26.7,64.3,26.6,64.1,26.6z"
		/>
	<path class="st0" d="M24.7,85.3c0.3-0.4,0.4-0.5,0.7-0.9c0.6-0.8,1-0.4,1.6-0.1c0.9,0.5,1.9,0.8,2.8,1.4c0.8,0.5,1.7,1,2.5,1.5
		c0.8,0.5,0.3,1.1,0.1,1.8c0,0.1,0.1,0.3,0.2,0.2c0.3-0.3,1-1.2,0.8-1.7c-0.5-1-2.4-1.7-3.3-2.3c-1.2-0.8-2.6-1.4-3.9-1.9
		c-1-0.4-1.7,1-2.1,1.6C24.2,85.2,24.5,85.6,24.7,85.3z"/>
	<path class="st0" d="M24.1,85.9c1,0.9,2.4,1.5,3.5,2.2c1.6,0.9,5,3.3,5.7,0.1c0-0.2-0.2-0.3-0.3-0.2c-0.5,0.7-1.1,1.5-2.1,1.1
		c-1-0.4-2-1-2.9-1.6c-0.8-0.5-1.6-0.9-2.4-1.4c-0.2-0.1-1.1-0.5-0.9-0.9c0.2-0.4,0.5-0.8,0.8-1.1c0.2-0.2-0.1-0.5-0.3-0.3
		C24.8,84.1,23.5,85.3,24.1,85.9z"/>
	<path class="st0" d="M31.8,86.5c0.4,0.1,0.5-0.5,0.6-0.7c0.1-0.2,0.2-0.4,0.4-0.5c0.1-0.1,0.2-0.4,0.3-0.5c0.3-0.2-0.1-0.6-0.4-0.4
		c0,0,0,0,0,0c0,0,0,0,0,0.1c-0.1,0.1-0.1,0.1-0.1,0.2c-0.1,0.2-0.2,0.3-0.3,0.5c-0.1,0.2-0.2,0.4-0.3,0.6c-0.1,0.1-0.1,0.3-0.2,0.4
		C31.5,86.2,31.5,86.4,31.8,86.5z"/>
	<path class="st0" d="M27.8,84.4c0.3-0.1,0.5-0.6,0.7-0.8c0.2-0.3,0.6-0.8,0.5-1.1c-0.1-0.2-0.3-0.2-0.4-0.1
		c-0.1,0.1-0.1,0.2-0.2,0.3c-0.1,0.2-0.2,0.4-0.4,0.6c-0.1,0.2-0.2,0.3-0.3,0.5c0,0.1-0.1,0.3-0.1,0.3
		C27.5,84.2,27.7,84.4,27.8,84.4z"/>
	<path class="st0" d="M82.9,48.7c-1-4.4-2.7-8-5.1-11.7c-1.7-2.6-3.6-5-6-7c-1-0.9-2.2-1.6-3.3-2.4c-0.2-0.1-1.2-0.7-1.9-1.1
		c0,0,0,0,0,0c0,0-0.1,0.1-0.1,0.1c0,0,0,0.1-0.1,0.1c0,0,0,0.1-0.1,0.1c1.2,0.6,2.4,1.6,3.5,2.3c2,1.2,3.7,3.1,5.2,4.8
		c2.9,3.6,5.4,7.9,6.8,12.3c1.3,4.1,1.4,8.5,0.9,12.8c-0.3,2.3-0.4,4.5-1.1,6.8C80.9,68,80,70,79.1,72.1c-0.8,1.8-2.1,3.6-3.3,5.2
		c-1.4,1.9-3,3.9-4.9,5.4c-3.7,2.9-7.7,5-12.2,6.4c-1.8,0.6-3.7,0.8-5.5,1.2c-1.1,0.2-2.2,0.3-3.3,0.4c-1.2,0.2-2.9,0.3-4.1,0.1
		c-1.3-0.3-2.8-0.2-4.2-0.2c-1.4,0-2.7-0.2-4.1-0.5c-1.5-0.3-3.1-0.9-4.7-1.5c0,0.2-0.1,0.4-0.2,0.6c2.2,0.9,5.1,1.8,7.7,2
		c1.5,0.1,2.9,0.1,4.4,0.2c1.9,0.1,3.8,0.2,5.8-0.1c2-0.3,3.9-0.4,5.9-0.9c2.1-0.5,4.2-1.1,6.2-1.9c3.5-1.4,7.2-3.5,9.9-6.2
		c2.9-2.9,5.8-6.4,7.5-10.2c1.5-3.5,3.2-7.4,3.2-11.2c0-2,0.4-4,0.4-6.1C83.5,52.6,83.3,50.6,82.9,48.7z"/>
	<path class="st0" d="M84.5,50.1c-0.8-3.5-1.9-6.7-3.4-9.9c-1.6-3.4-3.9-6.6-6.6-9.3c-1.2-1.1-2.4-2.2-3.7-3.2
		c-0.7-0.5-1.4-0.9-2.1-1.4c-0.1-0.1-0.9-0.5-1.4-0.7c0,0.1,0,0.1-0.1,0.2c0,0.1-0.1,0.1-0.1,0.1c0,0.1-0.1,0.1-0.1,0.2
		c0.4,0.2,0.8,0.4,1,0.5c1.5,1,3,1.9,4.3,3.1c2.8,2.5,5.1,5.3,7,8.5c3.3,5.6,5.1,11.9,5.1,18.4c0,2.3-0.5,4.7-0.8,7
		c-0.4,3.1-1.7,5.9-3,8.7c-1.3,3-3.2,6.5-5.7,8.7c-1.2,1-2.1,2.2-3.3,3.3c-1.5,1.2-3.1,2.2-4.5,3.3c-0.2,0.1,0,0.4,0.2,0.3
		c3-1.4,5.4-3.8,7.7-6.2c1.2-1.2,2.2-2.4,3.2-3.8c1.1-1.6,1.8-3.3,2.8-4.9c1.4-2.5,2.5-5.3,3-8.1c0.5-2.4,1-5,1-7.5
		C85,54.9,85.1,52.5,84.5,50.1z"/>
	<path class="st0" d="M69.6,86.3c-1.3,0.5-2.5,1.4-3.8,1.9c-1.7,0.7-3.3,1.6-5,2c-1.8,0.4-3.6,0.9-5.4,1.3c-1.8,0.4-3.7,0.4-5.5,0.7
		c-1.4,0.2-3.1,0.1-4.5,0C44,92,42.8,92,41.6,91.9c-3.3-0.5-6.4-1.1-9.4-2.5c-0.2,0.1-0.4,0.3-0.6,0.3c2.6,1.5,5.9,2.3,8.8,2.6
		c3.1,0.3,6.3,0.7,9.4,0.5c3.6-0.3,7-1.2,10.6-1.8c2-0.4,3.6-1.4,5.5-2.1c1.4-0.5,2.7-1.3,3.8-2.2C69.9,86.5,69.7,86.2,69.6,86.3z"
		/>
	<path class="st0" d="M53.3,99c-0.1-0.2-0.3-0.2-0.4-0.1c-0.5,1-0.9,1.5-2.1,1.5c-1,0-2.4-0.2-2.7-1.4c-0.1-0.3-0.5-0.2-0.5,0.1
		C47.9,102,54.1,101.6,53.3,99z"/>
	<path class="st0" d="M48,96.2c0-0.8-0.1-1.7-0.1-2.5c0-0.5,0.1-0.9-0.2-1.3c-0.1-0.2-0.4-0.1-0.4,0.1c0,1.4-0.1,2.8,0.1,4.2
		c0.1,0.8-0.1,2.1,0.5,2.8c0.1,0.1,0.3,0,0.3-0.1C48.3,98.4,48,97.3,48,96.2z"/>
	<path class="st0" d="M53.1,92.2c0-0.3-0.4-0.2-0.5,0.1c-0.2,2.3,0.2,4.7,0.2,7.1l0,0c0,0.4,0.7,0.5,0.7,0
		C53.5,97,53.5,94.4,53.1,92.2z"/>
	<path class="st0" d="M53.2,97.7c-0.3,0-0.4,0.5-0.1,0.6c1.2,0.4,1.4,1.8,0.5,2.6c-0.5,0.5-1.5,0.8-2.2,0.9c-0.8,0.2-1.7,0-2.5-0.2
		c-0.4-0.1-0.7-0.3-1.1-0.4c-0.9-0.4-1.8-2.1-0.2-2.7C48,98.4,48,98,47.7,98c-1.2,0.1-1.7,1.6-1.2,2.6c0.8,1.6,3.1,2,4.7,2
		c1,0,3.5-0.8,3.7-2.1C55.1,99.2,54.9,97.7,53.2,97.7z"/>
	<path class="st0" d="M55,107.4c-1.1,1.8-2.5,2.3-4.5,2c-1.8-0.2-3.1-0.5-3.4-2.5c-0.2-1.3-0.2-2.7-0.3-4c0-0.7,0-1.3-0.1-2
		c0-0.3-0.2-1.2,0-1.5c0-0.1-0.1-0.3-0.2-0.2c-0.3,0.3-0.4,0.9-0.4,1.3c0,1.1,0,2.2,0.1,3.3c0.1,1.5-0.1,3.4,0.6,4.9
		c0.7,1.4,3.2,1.5,4.5,1.6c1.8,0.2,3.8-0.9,4.2-2.7C55.7,107.3,55.2,107.1,55,107.4z"/>
	<path class="st0" d="M55.5,104.9c-0.1-1.2-0.3-2.4-0.4-3.5c-0.1-0.7,0.1-2.3-0.5-2.8c0,0-0.1,0-0.1,0c-0.5,1.4,0,3.5,0.1,5
		c0,0.7,0.1,1.5,0.2,2.2c0,0.4,0,0.9,0.1,1.3c0,0.7-0.4,1-0.8,1.5c-0.2,0.2,0,0.6,0.3,0.5C56.1,108.4,55.6,106.4,55.5,104.9z"/>
	<path class="st0" d="M69.7,113.5c-1.4-1.1-3-1.9-4.5-2.6c-1.7-0.9-3.3-1.6-5.1-2.3c-1.4-0.6-3.5-1.4-5.1-1.2
		c-0.4,0.1-0.3,0.8,0.1,0.7c1.3-0.2,3.1,0.6,4.3,1c1.5,0.5,3,1.1,4.4,1.9c1.3,0.6,2.5,1.3,3.8,2c1.2,0.7,4.6,2.5,2.4,4
		c-1.1,0.7-2.7,1.1-3.9,1.4c-1.4,0.3-2.9,0.6-4.3,0.8c-3.2,0.5-6.5,0.8-9.8,0.9c-3.1,0-6.3,0-9.5-0.4c-3.1-0.4-6.3-0.8-8.9-2.5
		c-0.8-0.5-1.7-1.3-1.8-2.3c-0.1-1,1.3-1.9,2-2.3c1.5-0.9,3-1.7,4.7-2.4c2.7-1,5.6-2,8.4-2.5c0.1,0,0.2-0.2,0.2-0.3c0,0,0-0.1,0-0.1
		c0-0.4-0.6-0.4-0.6,0c0-0.5-4.3,0.9-4.8,1.1c-1.7,0.6-3.4,1-5,1.8c-1.6,0.8-7.1,2.9-5.5,5.7c1.5,2.6,5.1,3.6,7.8,4.1
		c4.2,0.8,8.6,0.8,12.8,0.8c3.9,0,7.8-0.5,11.7-1.1c1.9-0.3,3.7-0.8,5.6-1.4c1.1-0.4,2.4-1,2.5-2.2
		C71.8,114.9,70.5,114.1,69.7,113.5z"/>
	<path class="st0" d="M70.9,115.1c-2.8,1.5-5.7,2.1-8.7,2.8c-3.6,0.8-7.4,0.9-11.1,0.9c-3.4,0-6.7-0.3-10.1-0.8
		c-1.5-0.2-3-0.5-4.6-0.8c-1.3-0.3-4.6-1.4-4.9-2.9c-0.1-0.3-0.5-0.2-0.5,0.1c0.1,1,1.1,1.6,1.8,2c1.5,1,3.4,1.5,5.1,1.9
		c3.7,0.8,7.7,1.3,11.5,1.3c4,0,8,0,11.9-0.7c2-0.4,4-0.8,6-1.4c1.3-0.3,2.7-0.8,3.8-1.7C71,115.5,71,115.3,70.9,115.1z"/>
	<path class="st0" d="M33.3,30.9c-0.8-0.5-0.3-0.7-0.5-1.4c-0.1-0.2-0.2-0.4-0.4-0.6c0-0.1-0.1-0.1-0.2-0.1c-0.1,0-0.1,0-0.2,0
		c-0.2,0-0.3,0.4-0.1,0.4c0.6,0.2,0.2,1.5,0.5,2c0.1,0.2,0.6,0.1,0.7,0.3c0.3,0.8-0.9,0.5-1.3,0.8c-0.3,0.3-0.3,1.2-1.1,0.8
		c-0.3-0.2-0.8,0-1.2-0.2c-0.3-0.1-0.8,0-1.1,0.1c-0.4,0.2-0.4,0.3-0.8,0.6c-0.3,0.2-1.2-0.4-1.5-0.6c-0.2-0.1-0.4,0.2-0.2,0.3
		c0.5,0.4,0.9,0.9,1.6,0.9c0.3,0,0.5-0.2,0.7-0.4c1-0.7,0.9-0.4,1.7-0.3c0.5,0,1.1,0.4,1.6,0.3c0.9-0.2-0.1-1.2,1.3-1.2
		C33.8,32.6,34.2,31.4,33.3,30.9z"/>
	<path class="st0" d="M57,27.2c-0.9-0.2-1.9-0.3-2.9-0.3c-0.7,0-1-1-1.6-1.3c-0.1-0.1-0.3,0-0.3,0.2c0,0.1,0,0.2,0,0.2
		c0,0.2,0.2,0.2,0.3,0.1c0.4,0.5,0.6,1.3,1.4,1.2c0.7-0.1,1.3,0.2,1.9,0.1c0.4,0.3,0.9,0.5,1.3,0.8c-0.2,0-0.3-0.1-0.5-0.1
		c-0.4,0-0.4,0-0.7,0.1c-0.1,0-0.2,0.1-0.2,0.2c-0.2,0.7-1.3,0.3-1.8,0.4c-0.9,0.1,0,0.2-1.1,0.8c-1.3,0.7-2.2,0-3.4,0.2
		c-0.4,0-1.1,0.1-1.4,0.3c-0.5,0.3-1,1.4-1.8,1c-0.3-0.1-1.4-0.7-1.5-1c-0.1-0.3-0.3-0.5-0.6-0.6c-0.2-0.1,0-1.4-0.9-1.1
		c-0.3,0.1-0.5,0.3-0.8,0.4c-0.8,0.1-1.5,0-2.2,0.3c-0.3,0.1-0.8,0.8-1.2,0.7c-0.8-0.1,0-0.9,0.1-1.3c0-0.1,0-0.1,0-0.2
		c-0.3-0.4,0.1-0.7,0.5-0.9c0.5-0.3,0.4-0.3,0.5-0.9c0-0.3-0.4-0.3-0.4-0.1c-0.2,0.7-1.1,0.7-1.2,1.5c0,0.1,0,0.2,0.1,0.2
		c0.4,0.5-0.4,0.6-0.5,0.9c-0.1,0.4,0.2,0.8,0.6,1c1,0.4,1.1-0.4,2-0.7c0.6-0.2,1.8,0.2,2.4-0.3c0.7-0.5,0.6,0.5,0.7,0.7
		c0.1,0.3,0.5,0.3,0.7,0.6c0.4,0.7,1.1,0.8,1.7,1.2c0.4,0.3,1.1,0.6,1.6,0.1c0.3-0.3,0.3-0.3,0.4-0.7c0.4-1,2.6-0.4,3.3-0.2
		c0.7,0.2,1.6-0.2,2.1-0.7c0.5-0.5,1.5-0.5,2.2-0.5c0.8,0,0.1-0.8,1.3-0.6C58.1,28.9,57.9,27.4,57,27.2z"/>
	<path class="st0" d="M61.6,30.2c-0.1-0.3-0.3-0.5-0.5-0.7c-0.2-0.2-0.4-0.1-0.5-0.1c-0.2-0.1-0.4-0.2-0.6-0.1c0,0-0.1-0.1-0.1-0.1
		c-0.3,0-0.5,0.1-0.7,0.3c-0.2,0.2-0.2,0.5-0.1,0.7c0.2,0.2,0.5,0.3,0.8,0.4c0.1,0,0.5-0.1,0.6,0c0.1,0.1,0.2,0.2,0.3,0.3
		C61.2,31.3,61.7,30.7,61.6,30.2z M61.1,30.6c-0.1,0.1-0.4-0.3-0.4-0.3c-0.2-0.2-0.5-0.1-0.8-0.1c-0.3,0-0.6-0.2-0.2-0.4
		c0,0,0.1,0,0.1,0c0.1,0,0.1,0.1,0.2,0c0.1-0.1,0.3-0.1,0.4,0c0,0.1,0.1,0.2,0.2,0.2c0.1,0,0.2,0,0.3-0.1c0,0,0.2,0.2,0.2,0.2
		C61.2,30.2,61.3,30.4,61.1,30.6z"/>
	<path class="st0" d="M30.3,55.7c-0.3-0.9-0.9-1.7-1.5-2.5c-0.6-0.8-1-1.1-2.2-0.9c-1.6,0.2-2.3-1.6-2.7-3c-0.1-0.4-0.2-0.7-0.5-1
		c-0.2-0.2,0-0.9,0-1.3c-0.1-0.9,0.3-1.1-0.3-1.8c-0.4-0.6-0.6-1-1.4-0.9c-0.4,0.1-2,0.2-2.2-0.3c-0.2-0.7-1.1-0.3-1.6-0.2
		c-0.3,0-0.3,0.5,0,0.5c1.1-0.1,1.5,0.7,2.6,0.6c1.1-0.1,2.6,0.2,2.4,1.6c-0.1,0.5-0.2,1.2-0.2,1.7c0,0.6,0.6,0.7,0.8,1.4
		c0.4,1.5,1.1,2.8,2.5,3.6c0.3,0.2,1.3-0.3,1.5-0.3c0.7,0,1.3,1.4,1.8,1.9c0.7,0.9,0.3,2.3-0.6,3c-0.4,0.3-0.6,0.5-0.5,1
		c0.1,0.6-1.5,1.4-1.9,1.6c-0.6,0.3-1,0.5-1.3,1.1c-0.2,0.4-0.4,1-0.5,1.4c-0.1,0.7-0.6,0.9-0.8,1.5c-0.4,1.4,1.7,2.6,0.8,4.1
		c-1,1.5-1.6,2.5-0.9,4.3c0.3,0.8-0.4,1.7-0.2,2.6c0,0.2,0.4,1,0.7,1c-0.8,0-1.6-3.5-1.9-4.2c-0.3-0.7-1.1-1.3-1.5-1.9
		c-0.3-0.4-0.3-0.8-0.5-1.2c-0.4-0.7,0.1-0.6,0.2-1.1c0.1-0.8-0.1-1-0.4-1.7c-0.3-0.8,0-1.5-0.5-2.3c-0.8-1.4-0.1-3.4-0.7-4.9
		c-0.1-0.4-0.4-0.5-0.8-0.6c-0.7-0.3-0.6-1.3-0.9-1.9c-0.3-0.6-1.2-1.4-1.3-2c0-0.1,0-0.1-0.1-0.2c0-0.1-0.1-0.2-0.1-0.2
		c0,0,0,0,0,0c0,0-0.1-0.1-0.1-0.1c0,0,0,0-0.1-0.1c-0.1-0.2-0.3-0.1-0.3,0.1c0,0,0,0,0,0.1c0,0,0,0.1,0.1,0.1
		c0,0.1,0.1,0.1,0.2,0.1c0,0-0.1,0.1-0.1,0c0,0.1,0.1,0.2,0.2,0.2c-0.2,0-0.2,0.2,0,0.5c0.6,0.8,1.2,1.3,1.3,2.4
		c0.1,0.6,0,1.4,0.8,1.4c1.1,0,0.9,3.3,1,3.9c0,0.4,0.2,0.8,0.4,1.2c0.3,0.7,0.3,1.4,0.4,2.1c0.2,1.3-0.1,2.1,0.4,3.3
		c0.5,1.3,1.7,2,2.1,3.2c0.4,1.1,0.7,2.2,1,3.3c0.2,0.6,0.9,0.7,1.4,0.7c0.1,0,0.3-0.1,0.3-0.3c-0.1-1-1-1.1-0.6-2.4
		c0.5-1.4-0.8-2.8,0.1-4c0.5-0.7,1.3-1.6,1.2-2.5c-0.1-1.1-1.8-2.7-0.6-3.6c0.6-0.4,0.5-1.6,0.7-2.2c0.5-1.2,2.4-1.1,3-2.1
		c0.4-0.6,0.3-1.2,0.9-1.6c0.4-0.3,0.6-1.1,0.9-1.5C30.3,56.3,30.4,56.1,30.3,55.7z"/>
	<path class="st0" d="M75.4,39.2c-0.2,0-1.1-0.3-1.2-0.3c-0.5-0.3-1,0-1.6-0.2c-0.5-0.1-2.1-1.1-2.6-0.2c-0.2,0.4-0.2,0.6,0,1
		c0.2,0.5,0.3,1.4,0.4,2c0-0.1,0,1.8-0.3,0.9c-0.1-0.2-0.1-0.3-0.3-0.5c-0.4-0.5-0.4-0.9-0.5-1.5c-0.2-0.7-1-0.5-1.3-1.1
		c-0.3-0.6-0.7-0.3-1.3-0.4c-1.1-0.2-2.3-0.5-3.3-0.9c-0.8-0.3-1.4-0.6-2.2-0.6c-0.9,0.1-0.4,2-1.8,1.5c-0.6-0.2-1.5,0.2-2,0.3
		c-0.7,0.1-0.7,1.2-1.7,0.4c-0.9-0.8-1.3-1-1.4-2.1c-0.1-0.8-1.5-1.2-0.9-2.1c0.1-0.2-0.1-0.4-0.3-0.2c-0.6,0.7-0.4,1.1,0.2,1.8
		c0.8,0.9,0,0.9,0.3,1.5c0.3,0.4,0.6,1,1,1.2c0.7,0.4,1.4,1.1,2.2,0.6c0.4-0.3,0.5-0.4,1-0.5c0.7-0.1,1.3-0.1,1.9-0.2
		c1.5-0.1,0.6-2.2,2.5-1.3c1.2,0.6,2.8,0.8,4.1,1.2c0.6,0.1,0.8-0.1,1.1,0.5c0.2,0.5,1.1,0.4,1.1,1c0,0.6,0,0.8,0.4,1.2
		c0.4,0.4,0.5,0.8,0.8,1.3c0.1,0.1,0.2,0.1,0.3,0.1c0.7-0.1,0.7-0.7,0.7-1.3c0-0.7-0.2-1.4-0.3-2.2c0-0.3-0.1-0.5-0.2-0.8
		c-0.5-1.2,1-0.4,1-0.4c0.6,0.4,1.5,0.5,2.2,0.4c0.6-0.1,1.2,0.2,1.8,0.3C75.6,39.7,75.7,39.3,75.4,39.2z"/>
	<path class="st0" d="M68.6,33.4c-0.9-0.8-2-1.2-1.9-2.7c0,0,0,0,0-0.1c0,0,0,0,0-0.1c0-0.1-0.1-0.3-0.2-0.3c0,0-0.1,0-0.1,0
		c-0.1,0-0.2,0.1-0.2,0.3c0,0,0,0.1,0,0.1c-0.1,0.3,0,0.6,0,0.6c0,0.2,0.1,0.5,0.2,0.7c0.1,0.4,0.2,0.8,0.7,1.1
		c0.9,0.5,1.6,1.7-0.2,0.1c-0.6-0.6-1.1-1-1.6-1.7c-0.3-0.4-0.6-0.8-1-0.3c-0.2,0.3-0.1,0.4,0.1,0.7c0.2,0.2,0.4,0.4,0.6,0.6
		c0.2,0.2,0.4,0.3,0.6,0.5c-0.1,0.4-0.3,0.5-0.4,0.4c-0.3-0.2-0.9,0-1-0.6c0-0.1-0.1-0.3-0.2-0.4c-0.3-0.2-0.6-0.5-1-0.5
		c-0.4,0-0.5,0-0.7,0.3c-0.1,0.1,0,0.3,0,0.4c0,1.7-2-0.4-2.2-0.6c-0.3-0.3-0.7-0.7-1.2-0.7c-0.8,0-1.4-0.3-2-0.7
		c-0.6-0.4-1.8-0.4-1.8,0.5c0,0.1,0,0.2,0.1,0.2c0.4,0.2,0.9,0.4,1.3,0.5c0.5,0.1,1.6,0.1,1.9,0.4c0,0-0.1-0.1-0.2,0
		c-0.4,0.1-0.7,0.2-1,0.5c-0.1,0.1-0.1,0.2,0,0.3c0.5,0.5,1.3,0.6,1.9,0.9c0.2,0.1,0.7,0.8,0.1,0.6c-0.3-0.1-0.8-0.1-1,0
		c-0.6,0.1-1.2,0.3-1.8,0.4c-0.5,0.1-1.2-0.3-1.8-0.3c-0.5,0-1.3,0.3-1.7,0.6c-0.2,0.1,0,0.4,0.2,0.3c1.6-0.7,3.2,0,4.8-0.5
		c0.8-0.2,2.2,0.6,2.4-0.5c0.2-0.8-1.3-1.1-1.7-1.3c-0.1,0-0.3-0.1-0.4-0.1c-0.4-0.3-0.3-0.4,0.2-0.3c0.1,0.1,0.2,0.2,0.4,0.2
		c0.3,0.1,0.4,0,0.5-0.2c0.1-0.1,0.1-0.2,0-0.2c-0.2-0.4-0.6-0.5-1-0.7c-0.2-0.1-0.4-0.1-0.6-0.2c0,0,0.1,0,0.1,0
		c0.7,0,1.4,0.2,1.9,0.6c0.3,0.3,0.5,0.7,0.9,0.9c0.7,0.4,1.9,0.7,2.2-0.4c0.3-1,0.7,0.2,1.1,0.6c0.4,0.4,1.1,0.5,1.6,0.7
		c0.1,0,0.2,0.1,0.3,0c0.5-0.3,0.6-0.6,0.5-1c0.3,0.3,0.6,0.5,0.9,0.8c0.5,0.4,1.4,0.6,1.7,0C68.9,33.8,68.7,33.5,68.6,33.4z
		 M55.9,31.1c0-0.1,0-0.2,0-0.2c0.5,0.1,1,0.3,1.4,0.6C56.8,31.4,56.3,31.3,55.9,31.1z M65,31.6c0.1,0.2,0.3,0.5,0.4,0.7
		C65,32.2,64.8,32,65,31.6z"/>
	<path class="st0" d="M72.4,35.7C72.4,35.7,72.4,35.7,72.4,35.7C72.3,35.7,72.3,35.7,72.4,35.7c-0.4,0.1-0.7,0-1,0.1
		c-0.5,0.3-1.1-1-1.2-1.3c0-0.3-0.2-0.5-0.4-0.7c-0.4-0.3-0.7-0.8-0.9-1.3c0.1-0.1,0.1-0.2,0-0.2c0,0-0.1-0.1-0.1-0.1
		c-0.1-0.1-0.4,0-0.4,0.2c0.1,0.5,0.3,1,0.6,1.4c0.2,0.3,0.8,0.6,0.8,1c0,0.3,0.2,0.5,0.3,0.8c0.2,0.4,0.7,0.8,1.1,0.9
		c0.1,0,0.3,0,0.4-0.1c0.1-0.1,0.6-0.1,0.8-0.1c0,0,0,0,0,0c0,0,0,0,0,0c0,0,0.1,0,0.1,0C72.8,36.2,72.7,35.7,72.4,35.7z"/>
	<path class="st0" d="M79.4,56.1c-1,0.3-0.9-1.1-1.4-1.4c-1.1-0.6-2.7-1.5-2.8-3c0-0.8,0.2-1.5-0.3-2.2c-0.4-0.5-1.4-0.8-2-1
		c-0.7-0.4-1.1-2.5-0.9-3.1c0.3-0.9,0.3-1.9,0.6-2.8c0.2-0.6-0.3-2,0.6-1.8c0.6,0.1,1.1,0,1.7,0.2c0.5,0.1,0.9,0.2,1.3,0.2
		c0.2,0,0.3-0.3,0.1-0.4c-0.7-0.1-5.2-1.7-4.4,0.4c0.3,0.7,0,1.3-0.2,2c-0.2,0.6,0,1.1-0.1,1.7c-0.1,0.5-0.4,1-0.4,1.4
		c0,0.2,0.2,0.3,0.2,0.4c0.4,0.5,0.2,0.8,0.4,1.4c0.2,0.9,1.3,1.2,2,1.5c0.9,0.4,0.7,1.4,0.6,2.2c-0.1,0.6,0.3,1.2,0.7,1.7
		c0.3,0.5,0.8,0.8,1.2,1.2c0.5,0.5,1.2,0.4,1.4,1.2c0.2,0.8,1,1,1.7,0.8C79.8,56.5,79.7,56,79.4,56.1z"/>
	<path class="st0" d="M64.8,76.7c-0.3,0-0.9-0.1-1.1,0.1c-0.3,0.2-0.4,0.3-0.6,0.6c-0.7,0.9-1.5,1-2.4,1.3c-0.4,0.2-1.7,1.2-2.1,0.9
		c-0.4-0.2-0.5,0-0.8-0.2c-0.4-0.3-0.8-0.2-1.2,0c-0.5,0.2-0.9,0.5-1.3,0.8c-0.1,0.1-0.2,0.2-0.3,0.3c-0.2,0-0.3,0.1-0.4,0.3
		c0-0.1-0.1-0.1-0.2-0.1c-0.2,0-0.2,0-0.4,0.1c-0.1,0-0.1,0.1-0.1,0.2c-0.9,0.8-1.6,1.6-0.3,2.5c0.8,0.5,1.7-0.2,2.5,0
		c0.5,0.1,1.1-0.4,1.5-0.7c1.3-1.3,3.5,0.8,4.8-1c0.3-0.4,0.5-1.7,0.9-1.9c0.7-0.3,0.9-0.7,1.3-1.4C64.8,78,66,76.7,64.8,76.7z
		 M64.2,78c-0.3,0.5-0.5,0.9-1.1,1.2c-0.3,0.1-0.5,0.2-0.6,0.5c0,0,0,0.1,0,0.1c0,1.1-0.7,2.1-1.9,2c-1.1-0.1-1.9-0.6-2.9,0.1
		c-0.6,0.4-0.9,0.8-1.7,0.8c-0.5,0-0.5,0-0.9,0.2c-1.3,0.2-1.9-0.5-1-1.4c0.1-0.1,0.2-0.2,0.3-0.3c0,0,0,0,0,0
		c0.9-0.2,2.2-1.8,3.2-1.3c0.2,0.1,0.3,0.2,0.5,0.2c0.3-0.1,0.3,0.1,0.6,0.2c0.4,0.1,0.5,0,0.9-0.2c0.8-0.4,1.3-0.9,2.2-1.2
		c0.4-0.2,1-0.2,1.4-0.6c0.5-0.6,1.1-0.8,1.7-1C64.7,77.2,64.3,77.9,64.2,78z"/>
	<path class="st0" d="M77.2,58.7c-0.3-0.8-0.8-1.5-1.1-2.3c-0.2-0.6-0.7-0.6-1.2-1.1c-0.6-0.5-0.4-1.3-0.9-1.7
		c-0.4-0.4-0.8-0.7-1.3-0.9c-1.7-0.7-1-1.5-1.2-2.7c-0.2-0.9-0.6-1.9-0.9-2.8c-0.5-1.4-0.4-2.8-1.4-3.9c-0.8-0.9-0.7-2.1-2.1-1.6
		c-0.8,0.3-1.1,0.7-2.1,0.7c-0.9,0-2.1,0.2-2.9-0.1c-1-0.3-1.8-0.5-2.6-1.2c-0.4-0.3-0.7-0.3-1.2-0.4c-0.8,0-1.4,0.2-2.3,0.3
		c-0.8,0.1-1.3-0.6-2.1-0.6c-0.3,0-0.7,0.2-1,0.4c-0.4,0.3-0.7,0.4-1.1,0.5c0,0-0.1-0.1-0.2-0.1c-0.5,0-0.9,0-1.3,0.4
		c-0.2,0.2-0.4,0.8-0.6,0.9c-0.7,0.1-1.4,0.3-2,0.5c-0.8,0.2-1.2,0.8-1.9,1.3c-1.5,1,0.1,1.5-0.7,2.7c-0.3,0.4-0.3,0.6-0.1,1.1
		c0.5,1.3-0.4,1.8-0.4,3c0,1.4,0.6,2.7,1.6,3.6c0.5,0.4,1.1,0.9,1.7,1.2c0.1,0.1,0.3,0.1,0.5,0.1c0.9,0,0.9-0.3,2-0.1
		c0.4,0.1,1,0.1,1.4,0.2c0.7,0.1,1.1,0.7,1.5,1.2c0.4,0.5,1.3,0.7,1.8,1.1c1,0.8,1.9,2,1.4,3.4c-0.3,0.8-0.4,0.6-1.1,1
		c-0.5,0.3-0.8,0.8-1.2,1.2c-0.8,1.1-1.8,0.4-2.8,0.6c-1.3,0.2-2.4,1.4-3.1,2.4c-0.4,0.6-0.4,1.5-0.9,2.2c-0.4,0.6-0.6,1.3-0.9,2
		c-0.4,1-0.8,1.8-1,2.8c-0.1,0.4-0.1,0.8-0.2,1.1c-0.1,1.2-0.5,0.9-0.9,1.6c-0.5,1-0.6,1.5,0.4,2.2c0.3,0.2,0.7,0.5,1.2,0.3
		c0.9-0.3,1.7,0.2,2.6,0c1.1-0.2,2-0.4,3.1-0.3c0.9,0.1,1.7,0,2.6-0.2c0.8-0.3,1.7-0.5,2.4-0.9c0.6-0.3,0.7-0.6,1.5-0.9
		c0.6-0.2,1.6-0.1,2.2-0.1c1.5-0.1,2.6-0.7,4-1.4c1.4-0.7,2.1-2.7,3.1-3.8c0.4-0.5,1.2-0.7,1.5-1.2c0.4-0.6,0.6-1.2,1.1-1.7
		c0.4-0.4,0.4-1.1,0.5-1.6c0.3-1.2,0.9-0.8,1.7-1.2c0.6-0.4,0.7-1.3,1.3-1.7c0.6-0.5,1.6-0.3,2.1-0.8c1-0.8-1-2,0.4-2.5
		C77.4,60.7,77.5,59.7,77.2,58.7z M76.2,60.5c-0.4,0.2-0.3,0.1-0.7,0.3c-0.4,0.3-0.5,0.3-0.4,0.8c0,0.5,1.4,1.4-0.3,1.6
		c-0.6,0.1-1.3,0.5-1.7,0.9c-0.5,0.6-0.7,1.4-1.6,1.6c-0.4,0.1-0.8,0.1-1,0.5c-0.4,0.8-0.2,1.8-0.9,2.4c-0.4,0.5-0.6,1.3-1.1,1.6
		c-1.2,0.8-2.3,1.9-3,3.1c-1.2,2.1-3.7,2.9-6,2.9c-0.5,0-1.3,0-1.7,0.3c-1,0.6-1.9,1.1-3,1.5c-1.2,0.4-2.2,0.5-3.4,0.3
		c-1.1-0.1-1.9,0.3-3,0.4c-0.7,0.1-2.8-0.1-3.3-0.4c-0.8-0.6,0.5-1.7,0.8-2.2c0.5-0.7,0.3-2.1,0.5-2.9c0.3-1.2,1-2.7,1.6-3.7
		c0.5-0.9,0.6-2,1.3-2.8c0.5-0.6,1.8-1.7,2.8-1.5c0.6,0.1,1.2,0.2,1.7-0.1c0.7-0.4,1.5-2.3,2.4-1.9c0.1,0,0.3,0,0.3-0.1
		c1.3-2.3,0.2-4.8-2.2-5.9c-1.2-0.5-1.5-1.7-3-1.7c-0.8,0-1.6-0.3-2.4-0.2c-1.1,0.2-2-0.6-2.8-1.3c-0.9-0.7-1.3-2.3-1.1-3.3
		c0.2-0.8,0.6-1.3,0.6-2.1c0-0.6-0.2-1.1,0.1-1.7c0.2-0.3,0-0.8,0-1c-0.2-1.5,1.9-2.2,3.1-2.4c0.3-0.1,1-0.1,1.3-0.4
		c0.3-0.3,0.4-0.7,0.6-1c0.1,0.1,0.4,0.1,0.4-0.2c0,0,0,0,0,0c0.4,0.1,0.6,0.1,1-0.1c0.3-0.1,0.8-0.5,1.1-0.6c0.8-0.2,1.3,0.2,2,0.4
		c0.9,0.2,1.6-0.4,2.4-0.3c1,0.1,1.6,0.8,2.5,1.2c0.6,0.2,1.3,0.4,1.9,0.5c0.6,0.2,1.7,0,2.3,0c0.9,0,1.1,0.3,1.9-0.2
		c0.4-0.3,1.2-1.2,1.6,0c0.1,0.2,0.2,0.4,0.3,0.5c0.7,0.8,0.9,1.5,1.1,2.6c0.2,1,0.6,1.9,0.9,2.9c0.2,0.6,0.4,1.1,0.4,1.8
		c0,0.4-0.1,1,0.1,1.4c0.5,1.4,2.5,1.1,2.8,2.6c0.1,0.6,0.6,1,1.1,1.4c0.2,0.2,0.6,0.2,0.7,0.5c0.2,0.4,0.2,0.7,0.4,1
		C76.4,58.2,77.2,60.1,76.2,60.5z"/>
</g>
</svg>
