<?xml version="1.0" encoding="utf-8"?>
<!-- Generator: Adobe Illustrator 21.0.2, SVG Export Plug-In . SVG Version: 6.00 Build 0)  -->
<svg version="1.1" id="Layer_1" xmlns="http://www.w3.org/2000/svg" xmlns:xlink="http://www.w3.org/1999/xlink" x="0px" y="0px"
	 viewBox="0 0 150 150" style="enable-background:new 0 0 150 150;" xml:space="preserve">
<style type="text/css">
	.st0{fill:#797979;}
</style>
<g>
	<path class="st0" d="M27.2,90.7c-2.3-2.8-4.2-5.9-6.4-8.9c-2.3-3.1-4.5-6.3-6.7-9.5c-2.1-3-4.2-6-6.3-9c-1-1.4-2.1-2.9-3.2-4.3
		c-1.4-1.8-3-3.4-3-5.7c0-0.2-0.1-0.3-0.3-0.3c-0.1,0-0.3,0.1-0.3,0.3c0,1.5,0.2,1.9,1,3.2c1,1.8,2.5,3.3,3.7,5
		c2.4,3.4,4.8,6.8,7.2,10.1c2.5,3.5,4.9,7,7.3,10.5c1.2,1.7,2.4,3.4,3.6,5c1,1.3,1.8,2.8,2.9,3.9C27.1,91.4,27.5,91,27.2,90.7z"/>
	<path class="st0" d="M79.6,96.4c-6.7-6.2-16.4-8-25.2-8.8c-9.2-0.8-18.4,0.6-27.3,3c-0.4,0.1-0.2,0.6,0.2,0.6
		c4.2-1,8.3-2.1,12.6-2.6c4.5-0.5,9.1-0.7,13.6-0.3c4.9,0.3,9.7,1,14.4,2.5c2,0.6,4.1,1.5,6,2.5c1,0.5,1.9,1.1,2.9,1.7
		c0.9,0.6,1.6,1.4,2.6,1.9C79.6,96.8,79.8,96.5,79.6,96.4z"/>
	<path class="st0" d="M91.8,95.5c-1.7,1.3-4.7,0.4-6.7,0.3c-1.1,0-2.3-0.1-3.3,0.1c-1.4,0.2-2.2,0.3-3.5-0.4
		c-0.1-0.1-0.2,0.1-0.1,0.1c0.3,0.4,0.8,1.4,1.5,1.3c1.6-0.2,3.1-0.5,4.7-0.5c1.7,0,3.3,0.2,5,0.2c1.3,0,1.8,0.2,2.7-0.9
		C92.2,95.7,92.1,95.3,91.8,95.5z"/>
	<path class="st0" d="M149,86.4c-0.3,1.5-6.2-0.6-7.2-0.9c-2.6-0.6-5.3-1-7.9-1.4c-6.1-0.8-11.9-0.8-18-0.4
		c-5.3,0.3-10.6,2.3-15.3,4.6c-2.1,1-4,2.5-5.8,4c-0.9,0.8-1.8,1.8-2.5,2.7c-0.2,0.3-0.8,0.8-0.8,1.2c0,0.3,0.4,0.3,0.5,0
		c0-0.4,1.6-1.7,1.9-2c0.9-0.9,1.9-1.8,2.9-2.7c2.4-1.8,4.9-3.1,7.7-4.2c5.6-2.2,11.4-3.3,17.5-3.4c6-0.1,11.9,0.9,17.8,1.8
		c2.6,0.4,5,1.3,7.6,1.8c1.1,0.2,2,0.4,2.4-0.9C149.7,86.1,149.1,85.9,149,86.4z"/>
	<path class="st0" d="M94.9,92.7c-0.7,0.5-1.3,1-1.9,1.6c-0.6,0.6-1.3,1.1-1.6,1.8c-0.1,0.1,0.1,0.3,0.2,0.2c0.6-0.5,1-1.1,1.6-1.6
		c0.3-0.3,0.5-0.6,0.8-0.9c0.3-0.3,0.7-0.6,1-1C95.1,92.7,95,92.6,94.9,92.7z"/>
	<path class="st0" d="M3.8,51.5c-0.2,0-0.4,0-0.6,0c-0.3,0-0.6,0-0.8,0.2c-0.1,0.1-0.1,0.4,0.1,0.5c0.3,0.1,0.6,0,0.8,0
		c0.3,0,0.5-0.1,0.7-0.3C4.1,51.8,4,51.5,3.8,51.5z"/>
	<path class="st0" d="M29.5,85.9c-0.9-1.6-2.3-3-3.4-4.5c-1.2-1.6-2.4-3.1-3.6-4.6c-2.5-3.1-5-6.2-7.4-9.2
		c-2.8-3.4-5.5-6.9-8.1-10.5c-1-1.4-2-2.8-3.2-4c-0.3-0.3-0.8-1.4-1.4-1.4c-0.3,0-0.3,0.5,0,0.5c0.1,0,2.2,2.7,2.4,2.9
		c1,1.3,2,2.7,3,4c2.4,3.1,4.7,6.2,7.2,9.3c2.3,2.9,4.7,5.8,7.1,8.7c2.3,2.9,4.4,6.3,7.1,8.9C29.4,86.3,29.6,86.1,29.5,85.9z"/>
	<path class="st0" d="M3.2,52.6c-0.6,0.1-1.2,0.1-1.8,0.3c-0.1,0-0.2,0.1-0.2,0.2c0,0.1,0,0.2,0,0.3c0,0,0,0,0,0c0,0,0.1,0,0.1,0.1
		c0,0,0,0,0,0c0.1,0,0.2,0,0.2-0.1c0.3-0.1,0.7-0.1,1-0.1c0.3,0,0.5,0,0.7-0.2C3.8,53,3.6,52.5,3.2,52.6z"/>
	<path class="st0" d="M28,88.7c-1.1-1.3-1.9-2.9-2.8-4.2c-1.1-1.6-2.3-3.2-3.5-4.8c-2.2-2.9-4.4-5.7-6.6-8.6
		c-4.5-6-8.7-12.2-13.4-18.1c-0.2-0.2-0.6,0.1-0.4,0.3c2,3.1,4.6,5.9,6.8,8.9c2.3,3.1,4.5,6.4,6.8,9.5c2.2,2.9,4.5,5.8,6.7,8.8
		c1.2,1.6,2.3,3.2,3.5,4.8c0.8,1.2,1.5,2.5,2.4,3.6c0,0.1,0.1,0.2,0.3,0.2c0,0,0,0,0.1,0C28.1,89.2,28.1,88.9,28,88.7z"/>
	<path class="st0" d="M27.8,88.7c-0.1-0.1-0.2-0.1-0.3,0c-0.2,0.3-0.3,0.6-0.3,1c0,0.4-0.2,0.7-0.2,1.1c0,0.3,0.5,0.4,0.5,0.1
		c0.1-0.3,0.2-0.7,0.2-1C27.9,89.4,28,89,27.8,88.7z"/>
	<path class="st0" d="M79.8,94.5c-1.7-0.8-3.3-2.1-5-3c-2-1.1-4.1-1.9-6.1-2.8c-4.1-1.8-9-2.2-13.4-2.7c-4.8-0.5-9.8-0.4-14.6,0.1
		c-2.1,0.2-4.2,0.7-6.3,1.2c-2.3,0.5-4.6,0.5-6.7,1.5c-0.1,0-0.1,0.2-0.1,0.2l0,0.1c0,0.4,0.6,0.4,0.6,0c0-0.4,5.8-1.1,6.4-1.3
		c2.2-0.4,4.4-1,6.6-1.2c4.4-0.5,9.1-0.5,13.5-0.1c4.6,0.5,9.7,0.9,14,2.8c1.9,0.8,3.8,1.6,5.7,2.6c1.7,0.9,3.2,2.2,5,3.1
		C79.8,95.2,80.1,94.6,79.8,94.5z"/>
	<path class="st0" d="M91,94.2c-3.7,0.5-7.6,0-11.4,0.3c-0.3,0-0.3,0.5,0,0.5c2.3,0.2,4.6,0,6.9-0.1c1.3,0,3.6,0.5,4.6-0.4
		C91.3,94.4,91.2,94.1,91,94.2z"/>
	<path class="st0" d="M149.4,85.9c-1.8-0.8-4.1-1-6-1.4c-3-0.7-6.2-1.2-9.2-1.7c-5.4-0.9-11.1-0.5-16.6-0.5
		c-5.4,0.1-11.1,1.6-16.1,3.7c-4.3,1.8-8,4.6-10.9,8.2c-0.2,0.3,0.1,0.7,0.4,0.4c1.3-1.5,2.7-3.5,4.5-4.4c1-0.5,1.9-1.4,2.9-2
		c1.2-0.8,2.5-1.4,3.9-1.9c4.9-2.1,10-2.8,15.3-3.4c5.1-0.6,10.3,0.2,15.4,0.4c3,0.1,6,1,8.9,1.6c2.3,0.5,5.1,0.6,7.3,1.6
		c0.2,0.1,0.5,0,0.5-0.3v-0.1C149.8,86,149.6,85.9,149.4,85.9z"/>
	<path class="st0" d="M29.6,85.9c-0.2-0.3-0.5-0.5-0.8-0.8c-0.1-0.1-0.3-0.3-0.4-0.3c0,0,0,0,0,0c0,0,0,0.1,0,0.1
		c0.1,0.2,0.2,0.4,0.3,0.5c0.1,0.2,0.4,0.4,0.5,0.6c0.1,0.3,0.5,0.3,0.5-0.1c0,0,0,0,0,0C29.7,86,29.7,85.9,29.6,85.9z"/>
	<path class="st0" d="M80.5,92.6c-6.7-5.1-16.4-7.5-24.7-8.3c-4.7-0.5-9.4-0.8-14.1-0.4c-4.1,0.4-8.2,1.1-12.3,2
		c-0.3,0.1-0.2,0.5,0.1,0.5c4.1-0.6,8.1-1.4,12.2-1.8c4.2-0.4,8.5,0,12.6,0.4c8.9,0.8,18.4,3.2,25.8,8.3
		C80.5,93.5,80.9,92.9,80.5,92.6z"/>
	<path class="st0" d="M89.7,92.4c-1.4-0.2-2.7,0.1-4.1,0.1c-1.8,0.1-3.6-0.1-5.3,0.2c-0.4,0.1-0.3,0.6,0.1,0.6
		c3-0.1,6.3,0.2,9.3-0.5C89.9,92.8,89.9,92.4,89.7,92.4z"/>
	<path class="st0" d="M145.3,83.7c-10.1-2-20.7-4.4-31-2.6c-5.2,0.9-10.2,2.1-15,4.3c-2.1,0.9-4,2.2-5.8,3.5
		c-1.4,1.1-2.6,2.5-3.9,3.6c-0.3,0.2,0.1,0.7,0.4,0.5c1.4-1,2.5-2.5,3.9-3.6C95.4,88,97.2,87,99,86c4.9-2.5,10.6-3.9,16.1-4.5
		c4.8-0.5,9.5-0.6,14.3,0c5.3,0.6,10.6,2.4,15.9,2.7C145.5,84.2,145.6,83.7,145.3,83.7z"/>
	<path class="st0" d="M90,92.2c-0.5-2.3-2.9-4.7-5.4-4.1c-1.4,0.3-2.5,1-3.2,2.2c-0.4,0.6-1.4,1.8-1.1,2.6c0,0.1,0.1,0.1,0.2,0.1
		c0.8-0.1,1.5-2.4,2-3c2.3-2.6,6.2-0.7,6.9,2.2C89.3,92.7,90.1,92.8,90,92.2z"/>
	<path class="st0" d="M31,84.4c-2.1-2.7-4.4-5.4-6.8-7.9c-2.4-2.6-4.7-5.6-6.9-8.3c-4.7-5.8-8.9-11.9-13.9-17.4
		c-0.2-0.2-0.5,0.1-0.3,0.3c1.9,2.6,4.1,5.1,6.1,7.6c2.5,3,4.7,6.3,7.2,9.3c2.3,2.7,4.6,5.4,6.8,8.1c1,1.2,2,2.4,3,3.6
		c1.3,1.7,2.8,3.6,4.5,5C30.8,84.7,31.1,84.6,31,84.4z"/>
	<path class="st0" d="M81.2,91.6C81.2,91.6,81.2,91.6,81.2,91.6c-0.1-1.1-3.2-2.4-4-2.8c-1.8-0.8-3.6-1.5-5.4-2.3
		c-4.1-1.7-8.7-2.7-13.1-3.2c-2.7-0.3-5.4-1-8.2-1.1c-2.2-0.1-4.3,0-6.5,0c-2.5,0-5,0.4-7.5,0.8c-1.3,0.2-2.5,0.4-3.8,0.7
		c-0.5,0.1-1.5,0.5-1.9,0.5c-0.3,0-0.3,0.5,0,0.5c0.4,0,0.7-0.2,1-0.3c1.2-0.2,2.3-0.4,3.5-0.6c2.7-0.5,5.3-0.6,8-0.9
		c4.6-0.6,9.4,0.1,13.9,0.9c4.2,0.7,8.6,1.3,12.7,2.8c1.4,0.5,2.7,1.1,4.1,1.6c1.2,0.4,2.3,1,3.4,1.5c0.5,0.2,3.2,1.5,3.2,2
		c0,0.2,0.1,0.3,0.3,0.3C81,91.9,81.2,91.9,81.2,91.6C81.2,91.7,81.2,91.6,81.2,91.6z"/>
	<path class="st0" d="M85.2,88c-3.4-5.3-6.8-10.7-9.8-16.2c-1.5-2.8-3.2-5.6-4.6-8.4c-0.7-1.4-1.5-2.8-2.3-4.2
		c-0.7-1.3-1.8-2.5-2.4-3.8c-0.1-0.3-0.6-0.1-0.5,0.2c0.4,1,1.2,1.9,1.8,2.8c0.9,1.5,1.8,3.1,2.6,4.7c1.5,2.9,3,5.7,4.6,8.5
		c3.2,5.7,6.4,11.4,10.1,16.7C84.8,88.7,85.4,88.4,85.2,88z"/>
	<path class="st0" d="M66.1,54.9c-1.4-1.5-4-2.4-5.8-3.2c-2.2-1-4.6-1.7-6.8-2.7c-5.4-2.2-11-3.5-16.8-4.1
		c-5.1-0.5-10.3-0.7-15.5-0.4c-2.8,0.1-5.7,0.4-8.5,0.8c-1.2,0.2-2.4,0.4-3.6,0.6c-0.7,0.2-1.4,0.3-2.1,0.5c-0.8,0.2-1.9,1-2.7,1
		C4,47.4,4,48,4.4,48c0.9,0,2-0.7,2.8-1c1.4-0.4,2.8-0.7,4.2-0.9c2.8-0.4,5.6-0.8,8.4-0.9c5-0.3,10-0.3,14.9,0.2
		c3.1,0.3,6.1,0.6,9.1,1.3c2.6,0.6,5.1,1.5,7.7,2.4c2.3,0.8,4.5,1.7,6.7,2.5c1.4,0.5,2.8,1.2,4.2,1.9c1,0.5,2.3,1,3.1,1.8
		c0,0.1,0.1,0.2,0.3,0.2c0,0,0,0,0.1,0C66.2,55.5,66.3,55.1,66.1,54.9z"/>
	<path class="st0" d="M3.4,48.5c-0.1-0.1-0.2-0.1-0.3,0c-0.2,0.3-0.2,0.7-0.2,1.1c0,0.2,0,0.4-0.1,0.6c0,0.2,0.1,0.4,0.1,0.6
		c0,0.4,0.6,0.4,0.6,0c0-0.2,0-0.3,0-0.4c0-0.3,0-0.5,0-0.8C3.6,49.2,3.6,48.8,3.4,48.5z"/>
	<path class="st0" d="M32.5,81.4c-2.2-2.9-4.7-5.5-7-8.4c-2.3-2.9-4.8-5.8-7.4-8.4c-2.6-2.7-5.1-5.5-7.5-8.3c-2.2-2.6-4.2-5.9-7-7.9
		c-0.2-0.1-0.4,0.2-0.2,0.3c2.5,2.5,4.6,5.3,6.8,8.1c2.3,2.9,5,5.6,7.5,8.3c2.5,2.8,4.9,5.6,7.5,8.4c1.5,1.7,3,3.4,4.4,5.1
		c0.9,1.1,1.7,2.2,2.8,3C32.4,81.8,32.6,81.5,32.5,81.4z"/>
	<path class="st0" d="M33,80.1c-0.6-1.2-1.8-2.3-2.7-3.3c-1.4-1.5-2.8-3.1-4-4.7c-2.5-3.1-5-6.1-7.6-9.1c-2.8-3.2-5.6-6.2-8.5-9.3
		c-1.3-1.4-2.6-2.9-3.8-4.3c-0.4-0.4-1.4-2-2-2c-0.4,0-0.4,0.5,0,0.6c-0.1,0,0.6,0.8,0.6,0.8C5.5,49.3,6,50,6.5,50.7
		c1.2,1.4,2.4,2.8,3.6,4.1c2.7,2.9,5.4,5.8,8,8.7c2.4,2.7,4.6,5.5,6.9,8.2c1.2,1.4,2.4,2.7,3.6,4c1.3,1.5,3,2.9,4.1,4.5
		C32.8,80.5,33.2,80.4,33,80.1z"/>
	<path class="st0" d="M84.5,87.9C84.5,87.9,84.4,87.9,84.5,87.9c-0.1-0.1-0.1-0.1-0.2-0.1c-3-2.5-7-4.1-10.6-5.5
		c-4.3-1.7-9-2.8-13.6-3.8c-4.6-1-9.6-0.9-14.3-0.8c-4.4,0.1-8.8,0.9-13,2.2c-0.3,0.1-0.2,0.6,0.1,0.5c4.2-1.3,8.5-2,12.9-2.1
		c4.7-0.1,9.5-0.1,14.1,0.8c4.1,0.8,8.3,2,12.2,3.4c2.3,0.8,4.4,1.9,6.6,2.9c1.8,0.8,3.7,1.8,5.2,3.1C84.3,88.7,84.8,88.2,84.5,87.9
		z"/>
	<path class="st0" d="M82.4,89.2c0,0-0.9-0.6-1.1-0.7c-1.1-0.8-2.3-1.4-3.5-2c-2.2-1.1-4.5-2.1-6.8-3c-4.5-1.6-9.2-2.7-13.8-3.6
		c-1.8-0.3-3.7-0.4-5.5-0.5c-2.3-0.1-4.6-0.3-6.9-0.1c-2.2,0.3-4.3,0.5-6.4,0.9c-1.2,0.2-2.5,0.3-3.7,0.6c-0.6,0.2-1.9,0.6-2.5,0.6
		c-0.3,0-0.3,0.5,0,0.5c1.3,0,3.1-0.6,4.4-0.9c2.4-0.4,5.1-1,7.5-1c4.5,0,9.1-0.2,13.5,0.6c4.7,0.9,9.4,2.1,13.8,3.7
		c2.5,0.9,4.8,2.2,7.2,3.3c1.2,0.6,2.2,1.4,3.3,2c0.1,0.1,0.2,0.2,0.4,0.2C82.8,89.7,82.8,89.2,82.4,89.2z"/>
	<path class="st0" d="M5,48.2c-0.6,0-1.2,0.1-1.7,0.1c-0.3,0-0.3,0.4,0,0.5c0.6,0,1.2,0,1.7-0.1c0,0,0,0,0,0c0,0,0,0,0,0l0,0
		C5.3,48.6,5.3,48.1,5,48.2z"/>
	<path class="st0" d="M141.9,76.7c-4.6-2.2-10.3-2.5-15.3-2.9c-5.1-0.4-10.3-0.1-15.3,0.9c-5.6,1.1-11,2.9-16.1,5.5
		c-2.4,1.3-4.8,2.6-7,4.3c-1,0.8-1.9,1.7-2.9,2.5c-0.3,0.2-0.8,0.7-0.8,1.1c0,0.4,0.6,0.4,0.6,0c0-0.3,1.2-1.2,1.4-1.4
		c1.1-1.1,2.4-2,3.7-2.9c2-1.4,4.2-2.5,6.4-3.6c4.8-2.4,10.2-3.9,15.4-4.9c9.6-2,20.3-1,29.6,1.9C142,77.3,142.2,76.9,141.9,76.7z"
		/>
	<path class="st0" d="M114.6,46.8c-3.9-1.5-8-1.6-12.1-1.8c-4.6-0.1-9.1,0.2-13.6,0.9c-4.3,0.7-8.7,1.7-12.7,3.4c-2,0.9-4,1.8-6,2.9
		c-1,0.6-2,1.2-3,1.8c-0.1,0.1-1.4,0.9-1.2,0.9c-0.5,0-0.5,0.7,0,0.7c0.9,0,2-1.2,2.7-1.7c1.7-1.1,3.4-2,5.3-2.9
		c4.1-1.9,8.5-3.2,12.9-4.2c4.6-0.9,9.4-1.3,14.2-1.3c2.1,0,4.2,0.1,6.3,0.3c2.5,0.2,4.7,0.7,7.1,1.3
		C114.8,47.3,114.9,46.9,114.6,46.8z"/>
	<path class="st0" d="M142.3,76.7C142.3,76.7,142.3,76.7,142.3,76.7C142.2,76.7,142.2,76.7,142.3,76.7c-0.1-0.1-0.1-0.1-0.1-0.1
		c-0.7-0.9-1.9-1.7-2.7-2.5c-1.3-1.3-2.7-2.6-3.9-3.9c-2.5-2.7-4.9-5.5-7.2-8.4c-2.5-3-5.3-5.7-7.7-8.6c-1.2-1.5-2.5-2.8-3.8-4.3
		c-0.4-0.4-1.6-2-2.2-2c-0.3,0-0.3,0.4,0,0.5c0.2,0,1.2,1.3,1.3,1.5c0.6,0.7,1.2,1.4,1.8,2.1c1,1.2,2.1,2.5,3.2,3.6
		c2.5,2.6,5,5.5,7.3,8.3c2.2,2.7,4.5,5.4,6.9,7.9c1.1,1.2,2.3,2.4,3.5,3.5c1,0.9,2.3,1.8,3.2,2.9c0,0,0,0,0,0c0,0,0,0,0.1,0.1
		C142.1,77.4,142.5,77,142.3,76.7z"/>
	<path class="st0" d="M143.4,79c-9.3-3-19.4-4.4-29-2.8c-5.5,0.9-10.8,2.4-15.9,4.5c-4.2,1.7-9.1,4-12.1,7.6
		c-0.2,0.2,0.1,0.5,0.3,0.3c3.1-3.6,8.1-5.8,12.5-7.6c5-2,10.1-3.3,15.3-4.3c9.7-1.8,19.4,0,28.7,2.8
		C143.6,79.8,143.8,79.2,143.4,79z"/>
	<path class="st0" d="M143.7,79.3c-0.2-0.6-0.8-1-1.2-1.4c-0.6-0.5-1.2-0.9-1.8-1.3c-0.1-0.1-0.3,0.1-0.2,0.2c0,0.2,0.2,0.3,0.3,0.5
		c0.4,0.3,0.7,0.6,1,0.9c0.5,0.5,0.9,1,1.4,1.5C143.4,79.7,143.8,79.5,143.7,79.3z"/>
	<path class="st0" d="M144.1,79.9c-0.1-0.2-0.1-0.5-0.2-0.7c-0.1-0.2-0.4-0.2-0.5,0c-0.1,0.2,0,0.4,0,0.6c0,0.1,0,0.2,0.1,0.4
		c0,0.1,0.1,0.4,0.1,0.4c-0.1,0.2,0,0.5,0.3,0.5c0,0,0,0,0.1,0c0.2,0,0.4-0.2,0.4-0.4C144.2,80.5,144.1,80.2,144.1,79.9z"/>
	<path class="st0" d="M143.9,80.6c-2.5-0.7-5-1.3-7.6-1.7c-2.3-0.4-4.6-1.1-7-1.2c-4.8-0.2-9.9-0.5-14.7,0.5c-4.8,1-9.5,2-13.9,4
		c-4.2,1.9-9.4,3.4-12.4,7.2c-0.2,0.2,0.1,0.5,0.3,0.3c3.4-3.1,7.5-4.9,11.7-6.7c4.5-1.9,9.1-3.3,13.9-4.1
		c9.9-1.6,19.6-0.6,29.2,2.2c0.1,0.1,0.1,0.1,0.3,0.1c0.1,0,0.1,0,0.2,0C144.2,81.3,144.2,80.7,143.9,80.6z"/>
	<path class="st0" d="M144.4,82.3c-0.3-0.3-0.7-0.2-1.1-0.3c-1.4-0.3-2.9-0.6-4.3-0.9c-2.7-0.5-5.6-1.2-8.4-1.3
		c-4.8-0.2-9.5-0.5-14.3,0.1c-5.1,0.6-10.5,1.3-15.2,3.4c-2.6,1.2-5,2.6-7.3,4.1c-1,0.6-4.6,2.7-4.6,4.1c0,0.3,0.5,0.3,0.5,0
		c0-0.9,2.8-2.6,3.4-3c0.9-0.6,1.7-1.1,2.6-1.7c2.3-1.5,4.8-2.7,7.3-3.7c4.7-1.8,9.7-2.1,14.7-2.8c4.2-0.6,8.4-0.3,12.5,0
		c2.7,0.2,5.4,0.7,8,1.2c1.3,0.3,2.6,0.4,3.9,0.7c0.3,0.1,1.3,0.3,1.7,0.4c0,0.1,0.1,0.1,0.2,0.1c0.1,0,0.1,0,0.2,0
		C144.4,82.8,144.6,82.5,144.4,82.3z"/>
	<path class="st0" d="M144.5,82.2c-0.5-0.5-0.9-1-1.3-1.5c-0.2-0.2-0.5,0.1-0.4,0.3c0.4,0.6,0.8,1.1,1.3,1.5c0,0.1,0.1,0.1,0.2,0.1
		c0,0,0,0,0,0C144.5,82.6,144.6,82.3,144.5,82.2z"/>
	<path class="st0" d="M145.4,83.7c-0.1-0.3-0.5-0.4-0.7-0.6c-0.3-0.3-0.6-0.5-0.9-0.8c-0.1-0.1-0.1-0.1-0.2,0c0,0,0,0,0,0
		c-0.1,0-0.1,0.1,0,0.2c-0.1-0.1,0.1,0.3,0.1,0.2c0.1,0.2,0.3,0.3,0.4,0.5c0.2,0.2,0.3,0.3,0.5,0.5c0.1,0.1,0.3,0.2,0.4,0.4
		c0,0,0,0,0,0C145,84.3,145.6,84,145.4,83.7z"/>
	<path class="st0" d="M149.5,85.7c-1.2-0.6-2.1-1.8-3-2.7c-0.6-0.6-1.1-1.1-1.6-1.7c-0.1-0.2-0.3-0.4-0.5-0.6
		c-0.1-0.1-0.4-0.2-0.5-0.3c0,0-0.1,0-0.2,0c0,0,0,0,0,0c-0.1,0.1-0.1,0.1,0,0.2c0.4,0.5,0.7,1.1,1.1,1.6c0.5,0.5,0.9,1,1.4,1.5
		c0.8,0.8,1.7,1.9,2.7,2.5c0.1,0.1,0.3,0.2,0.4,0.1c0,0,0,0,0.1,0C149.7,86.2,149.7,85.8,149.5,85.7z"/>
	<path class="st0" d="M84.7,88.5c-0.1-0.2-0.3-0.1-0.3,0c0,0,0,0,0,0c0,0.5,0.2,1.1,0.3,1.7c0.2,0.8,0.4,1.6,0.4,2.4
		c-0.1,0.3,0.6,0.5,0.6,0C85.7,91.3,85.2,89.8,84.7,88.5z"/>
	<path class="st0" d="M88,89.6L88,89.6c-0.1-0.1-0.2-0.1-0.3-0.1c-0.4,0.2-0.7,0.7-1,1.1c-0.3,0.4-0.6,0.8-0.9,1.1
		c-0.1,0.2-0.5,0.4-0.3,0.5c0,0-0.1,0-0.1,0c-1.2-0.7-2.4-1.5-3.6-2.2c-0.1-0.1-0.2,0.1-0.1,0.2c0.5,0.6,1.2,0.9,1.8,1.4
		c0.6,0.4,1.1,0.9,1.8,1.2c0.2,0.1,0.3,0,0.4-0.2c1-0.5,1.5-1.9,2.2-2.7C88.1,89.9,88.2,89.7,88,89.6z"/>
	<path class="st0" d="M85.2,91.8c-0.2-0.3-0.6-0.5-0.8-0.8c-0.3-0.3-0.6-0.6-0.9-0.9c-0.2-0.2-0.4-0.4-0.6-0.5
		c-0.1,0-0.2,0.1-0.1,0.2c0.2,0.2,0.3,0.4,0.4,0.6c0.3,0.4,0.6,0.7,0.9,1c0.3,0.4,0.8,1.1,1.4,1.2c0.1,0,0.1-0.1,0.1-0.1
		C85.6,92.1,85.4,92,85.2,91.8z"/>
	<path class="st0" d="M84.8,90.9c-0.5-0.6-0.8-1.4-1.3-2.1c-0.1-0.1-0.2,0-0.1,0.1c0.1,0.7,0.5,1.5,0.9,2.1c0.3,0.4,0.6,1.1,1,1.4
		c0.1,0,0.2,0,0.2-0.1C85.6,91.8,85.1,91.2,84.8,90.9z"/>
	<path class="st0" d="M85.9,88.9c0-0.1-0.1-0.2-0.2-0.1c-0.4,0.3-0.3,1.1-0.3,1.5c0,0.6-0.2,1.5,0.3,2c0.1,0.1,0.2,0,0.2-0.1
		C86,91.1,85.9,90,85.9,88.9z"/>
	<path class="st0" d="M86.7,89c-0.3,0.6-0.5,1.1-0.7,1.7c-0.1,0.4-0.4,1-0.3,1.4c0,0.1,0.1,0.1,0.2,0.1c0.4-0.1,0.4-0.7,0.6-1
		c0.2-0.6,0.6-1.5,0.5-2.1C87,88.9,86.7,88.9,86.7,89z"/>
	<path class="st0" d="M85.1,92.3c-0.5-0.2-1.2-0.1-1.8-0.2c-0.7-0.1-1.4-0.2-2.1-0.2c-0.2,0-0.2,0.3,0,0.3c0.7,0.2,1.5,0.2,2.3,0.3
		c0.6,0.1,1.2,0.2,1.7-0.1C85.2,92.5,85.2,92.3,85.1,92.3z"/>
	<path class="st0" d="M85.4,92.2c-0.6-0.3-1.3-0.4-1.9-0.6c-0.7-0.2-1.4-0.4-2.1-0.5c0,0-0.1,0-0.1,0.1c0.4,0.5,1,0.6,1.5,0.7
		c0.8,0.2,1.7,0.8,2.6,0.6C85.4,92.5,85.5,92.3,85.4,92.2z"/>
	<path class="st0" d="M88.3,90.5c-0.4,0.2-0.7,0.6-1.1,0.8c-0.5,0.3-0.8,0.7-1.2,1c-0.1,0.1-0.1,0.3,0.1,0.3c0.5,0,0.9-0.5,1.3-0.7
		c0.4-0.3,0.9-0.6,1.3-1C88.7,90.6,88.5,90.3,88.3,90.5z"/>
	<path class="st0" d="M89.3,91.1c-0.5,0.3-1.1,0.3-1.6,0.5c-0.5,0.1-1.2,0.3-1.6,0.7c-0.1,0.1,0,0.2,0,0.2c0.2,0.1,0.3,0,0.5,0
		c0.5-0.1,0.9-0.3,1.4-0.4c0.4-0.1,1.4-0.1,1.6-0.6C89.7,91.3,89.5,91,89.3,91.1z"/>
	<path class="st0" d="M70.9,67.2c-7.5-3.3-15.4-5.3-23.6-6.2c-4.4-0.5-9-0.4-13.5-0.3c-2.5,0-5,0.1-7.4,0.4
		c-1.8,0.2-3.9,0.4-5.5,1.2c-0.2,0.1,0,0.4,0.1,0.3c8.4-1.6,17.1-1.7,25.6-1.1c4.4,0.3,8.7,1.2,13,2.3c2,0.5,3.9,1.2,5.9,1.8
		c1.8,0.6,3.5,1.5,5.3,1.9C71,67.7,71.2,67.3,70.9,67.2z"/>
	<path class="st0" d="M123.9,58.8c-8.4-1.3-17.1-1.2-25.5,0c-4.5,0.6-8.8,1.5-13.2,2.8c-1.8,0.5-4,1.2-5.6,2.1
		c-0.9,0.5-1.9,1-2.8,1.5c-0.5,0.3-1.9,1.6-2.5,1.6c-0.3,0-0.3,0.4,0,0.5c1,0,2.4-1.4,3.3-1.9c2.1-1.1,4.3-2,6.6-2.8
		c4.2-1.5,8.6-2.2,13-2.9c4.5-0.7,9.1-1,13.7-1c2.2,0,4.5,0,6.7,0.1c2.1,0.2,4.1,0.6,6.2,0.5C124.1,59.3,124.2,58.9,123.9,58.8z"/>
	<path class="st0" d="M121.2,56.5c-1.2-0.4-2.7-0.4-4-0.5c-2.1-0.2-4.3-0.2-6.4-0.2c-4.7,0-9.3,0.4-14,1c-4.4,0.5-8.5,1.7-12.8,3
		c-2,0.6-4.3,1.4-6.1,2.4c-1.4,0.8-3.5,1.7-4.4,3c-0.1,0.1,0.1,0.3,0.2,0.2c1.4-1.3,3.8-2.5,5.6-3.1c2-0.7,4-1.6,6-2.3
		c4.2-1.5,8.5-2.3,12.9-2.7c4.2-0.4,8.4-0.8,12.6-0.8c2,0,3.9,0.1,5.9,0.1c1.5,0,2.9,0.4,4.4,0.3C121.3,56.8,121.3,56.5,121.2,56.5z
		"/>
	<path class="st0" d="M118.8,54c-3.8-0.2-7.7-0.8-11.5-0.7c-4.3,0.2-8.6,1.1-12.9,1.6c-4,0.5-8,1.9-11.8,3.3
		c-3.3,1.2-7.3,2.4-9.9,4.9c-0.2,0.1,0,0.4,0.2,0.3c1.5-0.9,2.8-1.8,4.4-2.4c2-0.9,4-1.7,6.1-2.5c3.8-1.4,7.8-2.3,11.8-3.1
		c4-0.8,8.1-1.2,12.1-1.5c2.1-0.1,4.3,0.1,6.3,0.2c1.7,0.1,3.5,0.5,5.2,0.4C119.1,54.4,119.1,54,118.8,54z"/>
	<path class="st0" d="M117.5,51.9c-7.8-0.9-15.6-0.8-23.3,0.5c-3.9,0.7-7.8,1.7-11.6,3c-3.9,1.3-7.8,2.6-11.2,5.1
		c-0.2,0.2,0,0.5,0.2,0.4c7-4,14.7-6.5,22.7-7.9c4-0.7,8-1,12.1-1c2.1,0,4.1,0,6.2,0c1.6,0,3.3,0.6,4.9,0.3
		C117.8,52.2,117.7,51.9,117.5,51.9z"/>
	<path class="st0" d="M115.3,50.1c-7.4-0.7-15.1-0.9-22.4,0.7c-4.2,0.9-8.3,1.9-12.3,3.2c-3.5,1.1-7.2,2.1-10.2,4.3
		c-0.2,0.2,0,0.5,0.2,0.4c1.4-0.6,2.6-1.4,4-2c2-0.9,4.1-1.6,6.1-2.2c3.9-1.1,7.7-2.4,11.6-3.1c4.1-0.7,8.3-1.3,12.5-1.3
		c1.9,0,3.9,0,5.8,0c1.6,0,3.1,0.4,4.7,0.4C115.6,50.6,115.6,50.2,115.3,50.1z"/>
	<path class="st0" d="M113.6,48.4c-7.7-0.4-15.2-1.1-22.8,0.4c-4,0.8-8,1.6-11.8,3c-3.2,1.1-7.4,2.3-9.9,4.7
		c-0.3,0.3,0.1,0.6,0.4,0.4c2.8-2.7,7.4-3.9,11-5.1c3.6-1.3,7.4-1.9,11.2-2.6c3.9-0.7,8-0.9,11.9-0.8c3.4,0.1,6.7,0.7,10.1,0.6
		C113.9,48.9,113.9,48.4,113.6,48.4z"/>
	<path class="st0" d="M85.7,83.3c-2.2-2.3-3.4-5.6-4.9-8.4c-1.1-2-2.1-4.9-3.9-6.3c-0.1-0.1-0.2,0.1-0.1,0.1
		c0.5,1.1,1.2,2.2,1.9,3.2c0.9,1.4,1.5,3,2.3,4.4c1.4,2.5,2.4,5.3,4.4,7.4C85.5,84,85.9,83.6,85.7,83.3z"/>
	<path class="st0" d="M101.5,60.9c-2.3-0.2-4.8,0.3-7.1,0.7c-2.8,0.5-5.5,1.3-8.2,2c-2.4,0.7-4.8,1.7-7,2.9
		c-0.6,0.3-2.7,1.2-2.6,2.1c0,0.2,0.3,0.2,0.3,0c0.1-0.8,3-1.9,3.7-2.3c2.3-1.1,4.6-1.9,7-2.5c4.6-1.2,9.1-2,13.8-2.6
		C101.8,61.2,101.7,60.9,101.5,60.9z"/>
	<path class="st0" d="M112,72.6c-0.8-0.4-1.3-1.5-1.8-2.2c-1.1-1.2-2.1-2.5-3.2-3.8c-1.2-1.3-2.3-2.5-3.3-3.9
		c-0.5-0.6-1.2-1.6-2-1.8c-0.2-0.1-0.3,0.2-0.2,0.4c0.7,0.5,1.6,1.7,2.1,2.4c1.1,1.4,2.2,2.7,3.4,3.9c1.2,1.3,2.4,2.7,3.4,4.1
		c0.4,0.5,0.7,1.2,1.3,1.5C112,73.4,112.4,72.8,112,72.6z"/>
	<path class="st0" d="M112.1,72.9c-0.1,0-0.1,0-0.2,0c0,0-0.1,0-0.1,0c-4.8,0.5-9.2,2.2-13.8,3.6c-2.4,0.7-5,2.1-7.2,3.3
		c-1.1,0.6-2.2,1.1-3.2,1.9c-0.7,0.5-1.7,1-2.2,1.7c-0.2,0.2,0.2,0.5,0.4,0.3c1.5-1.7,3.9-2.7,5.8-3.7c2.1-1.2,4.7-2.4,7-3.1
		c4.5-1.4,8.7-3.1,13.4-3.4C112.5,73.5,112.5,72.9,112.1,72.9z"/>
	<path class="st0" d="M125.5,62.8c-0.8-0.5-1.8-0.3-2.7-0.5c-1.5-0.3-3.4-0.3-4.9-0.3c-3.7,0-7.4,0.2-11,0.6c-0.3,0-0.3,0.5,0,0.5
		c3.3-0.2,6.5-0.5,9.9-0.5c2.8,0,5.9-0.1,8.6,0.6C125.6,63.3,125.7,62.9,125.5,62.8z"/>
	<path class="st0" d="M127.8,65.1c-2.7-0.1-5.3-0.6-8-0.6c-0.9,0-10.8-0.1-10.7,0.5c0-0.2-0.4-0.2-0.4,0l0,0.1
		c0,0.2,0.1,0.3,0.2,0.3c1.6,0.1,3.3-0.4,4.9-0.4c1.8,0,3.6-0.2,5.4-0.1c1.5,0.1,3,0.1,4.6,0.3c1.3,0.1,2.8,0.5,4.1,0.4
		c0.2,0,0.3-0.1,0.3-0.3C128.1,65.3,128,65.1,127.8,65.1z"/>
	<path class="st0" d="M130.3,67.7c-0.5-0.4-1.4-0.4-2-0.4c-1.8,0-3.6-0.2-5.4-0.1c-3.8,0.1-7.6,0.1-11.4,0.5c-0.3,0-0.4,0.5,0,0.5
		c3.1,0.1,6.3-0.4,9.4-0.3c1.7,0.1,3.4-0.1,5.1-0.1c1.1,0,2.9,0,4,0.4C130.3,68.2,130.5,67.8,130.3,67.7z"/>
	<path class="st0" d="M132.8,70.4c-1-0.5-2.1-0.7-3.2-0.8c-1.8-0.2-3.7-0.4-5.5-0.3c-1.9,0.1-3.8,0.3-5.8,0.3
		c-1.5,0.1-3.1,0.1-4.6,0.5c-0.3,0.1-0.2,0.6,0.1,0.5c3.1-0.8,6.5-0.5,9.6-0.8c2.8-0.2,6.5-0.1,9.1,1
		C132.9,71,133.1,70.5,132.8,70.4z"/>
	<path class="st0" d="M77.9,81c-3.2-1.6-6.6-2.8-10.1-3.8c-3.7-1.1-7.7-2-11.5-2.3C48.9,74.2,41,74,33.7,75.8
		c-0.2,0.1-0.2,0.5,0.1,0.4c3.8-0.5,7.4-1.1,11.2-1.1c3.3,0,6.7-0.2,10,0.2c4,0.5,8.1,1.2,12,2.3c1.9,0.5,3.9,1.2,5.8,1.8
		c1.7,0.5,3.3,1.6,5,2C78,81.5,78.2,81.1,77.9,81z"/>
	<path class="st0" d="M75.9,77.3c-0.7-0.6-2-0.9-2.9-1.3c-1.7-0.9-3.8-1.3-5.6-1.9c-4.1-1.3-8.5-2-12.8-2.6
		c-4.2-0.6-8.5-0.5-12.8-0.4c-2.2,0-4.3,0.1-6.5,0.4c-1.5,0.2-3.4,0-4.6,1c-0.1,0.1-0.1,0.4,0.1,0.3c1.6-0.7,3.5-0.6,5.2-0.8
		c2.2-0.3,4.3-0.3,6.5-0.3c4.2,0,8.5-0.1,12.6,0.5c3.9,0.5,7.7,1.2,11.5,2.3c2,0.6,4.1,1.2,6.1,2c0.8,0.4,2.1,0.7,2.8,1.2
		C75.8,77.9,76.2,77.5,75.9,77.3z"/>
	<path class="st0" d="M73.6,73.2c-1.2-0.7-2.5-1.1-3.8-1.5c-2-0.6-3.9-1.3-5.9-1.8c-4.1-1-8.4-1-12.5-1.7c-1.7-0.3-3.6-0.2-5.4-0.2
		c-2.1,0-4.3,0-6.4,0.1c-3.5,0.1-7.7-0.1-11,1.3c-0.2,0.1,0,0.3,0.1,0.3c3.8-0.8,7.7-0.9,11.6-1.1c3.7-0.1,7.8-0.4,11.5,0.2
		c3.7,0.7,7.5,0.7,11.2,1.4c3.6,0.8,6.8,2.5,10.4,3.3C73.6,73.6,73.8,73.3,73.6,73.2z"/>
	<path class="st0" d="M71.2,69.7c-1.4-0.2-2.9-1.1-4.3-1.5c-2.2-0.6-4.4-1.2-6.6-1.7c-4.1-0.8-8.2-1.3-12.3-1.9
		c-3.9-0.6-7.8-0.3-11.7-0.3c-3.7,0-7.4,0.6-11.1,1.1c-0.1,0-0.2,0.2-0.2,0.3c0,0,0,0.1,0,0.1c0,0.4,0.5,0.4,0.6,0
		c0,0.2,4.7-0.4,5-0.4c1.9-0.1,3.8-0.4,5.8-0.4c1.9,0,3.8-0.1,5.7-0.1c2.2,0,4.3,0.3,6.5,0.4c4.2,0.2,8.3,1.1,12.4,1.9
		c2.1,0.4,4.4,0.9,6.4,1.7c1.2,0.5,2.7,1.2,4,1.3C71.6,70.3,71.6,69.7,71.2,69.7z"/>
	<path class="st0" d="M20.4,59.7c-2-2-3.7-4.2-5.7-6.2c-1.6-1.6-3.4-3.2-5-4.9c-0.1-0.1-0.4,0-0.3,0.2c0.4,0.7,1.2,1.3,1.8,1.9
		c0.8,0.9,1.6,1.9,2.5,2.8c2.1,2.2,4,4.5,6.1,6.7C20.2,60.6,20.7,60.1,20.4,59.7z"/>
	<path class="st0" d="M42.1,48.2c-2.7-0.4-5.5-1.3-8.3-1.2c-2.5,0-5.1-0.2-7.6-0.3c-2.7-0.1-5.4,0.1-8,0.4c-1.5,0.2-3.1,0.2-4.7,0.4
		c-1.3,0.1-2.5,0.7-3.8,0.9c-0.4,0-0.4,0.6,0,0.6c0.9-0.1,1.8-0.4,2.7-0.6c1.6-0.4,3.4-0.4,5.1-0.5c2.8-0.2,5.4-0.4,8.2-0.4
		c2.5,0,5.1,0.3,7.6,0.3c1.4,0,2.7,0.3,4.1,0.4c1.5,0.1,3.2,0.8,4.7,0.7C42.4,48.7,42.4,48.3,42.1,48.2z"/>
	<path class="st0" d="M51.8,59.6c-1.6-2-3.1-4-4.7-6c-0.8-0.9-1.6-1.9-2.3-2.9c-0.4-0.5-0.8-0.9-1.2-1.4c-0.1-0.1-1.2-0.9-1.3-1
		c0-0.2-0.4-0.2-0.5,0c-0.1,0.5,0.5,0.8,0.9,1.1c1.2,1.1,2.1,2.5,3.2,3.7c0.5,0.6,5.2,6.8,5.5,6.5c-0.1,0.1-0.1,0.2,0,0.3l0.1,0.1
		C51.6,60.3,52,59.9,51.8,59.6z"/>
	<path class="st0" d="M51.3,59.5c-4.9-1.1-10-1.1-15-1.1c-5.4,0-10.8-0.2-16,1.3c-0.3,0.1-0.2,0.5,0.1,0.5c2.5-0.2,4.9-1,7.4-1
		c2.6,0,5.3-0.1,7.9-0.1c2.5,0,5.1,0.1,7.6,0.1c1.4,0,2.7,0.2,4.1,0.3c0.2,0,3.2,0.5,3.6,0.4c0,0,0,0,0,0.1c0,0,0.1,0.1,0.1,0.1
		c0.2,0.2,0.5,0,0.5-0.2c0,0,0-0.1,0-0.1C51.6,59.7,51.4,59.5,51.3,59.5z"/>
	<path class="st0" d="M55.1,60.2c-1.2-1.2-2.1-3.1-3.2-4.4c-1.4-1.8-2.5-3.7-4.1-5.3c-0.1-0.1-0.3,0-0.2,0.2
		c1.3,1.8,2.5,3.7,3.9,5.5c0.7,0.9,1.3,1.8,2,2.8c0.4,0.6,0.7,1.3,1.2,1.8C54.9,61,55.4,60.5,55.1,60.2z"/>
	<path class="st0" d="M64.1,55.8c-2.2-1.8-4.9-2.2-7.5-3.2c-1.5-0.6-3.1-0.9-4.7-1.3c-1.4-0.3-2.6-1.1-4-1.1c-0.3,0-0.3,0.4-0.1,0.5
		c2.7,0.7,5.4,1.5,8,2.3c1.6,0.5,3.2,0.9,4.7,1.6c1.1,0.5,2.2,1.2,3.4,1.6C64.1,56.3,64.3,56,64.1,55.8z"/>
	<path class="st0" d="M69,64.4c-2.3-1.1-4.6-1.7-7-2.4c-2.4-0.7-4.8-1.8-7.3-1.8c-0.2,0-0.3,0.3-0.1,0.4c2.2,0.5,4.4,1.1,6.5,1.8
		c2.5,0.8,5,1.4,7.4,2.5C69,65.2,69.4,64.6,69,64.4z"/>
	<path class="st0" d="M69.8,64.4c-1.3-1.6-2.2-3.5-3.5-5.1c-0.7-0.9-1.3-2-2-3c-0.1-0.1-0.4-0.4-0.4-0.5c0-0.2-0.3-0.2-0.3,0
		c0,0,0,0.1,0,0.1c0,0.1,0,0.2,0.1,0.2c0.9,0.7,1.5,2.6,2.3,3.6c0.6,0.8,1.3,1.7,1.8,2.6c0.4,0.6,0.7,2.3,1.6,2.1
		c-0.4,0.1-0.4,0.7,0,0.7c0.2,0,0.3-0.1,0.5-0.2C69.9,64.8,69.9,64.6,69.8,64.4z"/>
</g>
</svg>
