<?xml version="1.0" encoding="utf-8"?>
<!-- Generator: Adobe Illustrator 21.0.2, SVG Export Plug-In . SVG Version: 6.00 Build 0)  -->
<svg version="1.1" id="Layer_1" xmlns="http://www.w3.org/2000/svg" xmlns:xlink="http://www.w3.org/1999/xlink" x="0px" y="0px"
	 viewBox="0 0 150 150" style="enable-background:new 0 0 150 150;" xml:space="preserve">
<style type="text/css">
	.st0{fill:#797979;}
</style>
<g>
	<path class="st0" d="M98.6,47c-0.9-5.6-3.8-11.3-7.8-15.1c-8.6-8.2-24.5-8.6-33.8-1.7c-3.1,2.3-5.6,6.1-6.9,9.6
		c-0.7,2.1-1.5,4.5-1.6,6.8C47.8,51.6,49,57,50.6,61.4c1.9,5,7,9.7,12,11.7c10.9,4.2,24.5,1.7,31.4-8.3C97.5,59.7,99.6,53.1,98.6,47
		z M97.6,53c-1.1,6.7-4.5,13.2-10.2,17.1c-2.4,1.6-5.2,2.6-8,3.3c-3.2,0.7-7.4,1.1-10.6,0.5c-6.5-1.4-12.5-4.7-16.1-10.5
		c-2.8-4.5-4-11.1-3.3-16.7c0.8-4.8,2.5-9.5,5.8-13.3c4.9-5.5,12.4-7.4,19.5-6.8c6.2,0.5,12.7,2.8,16.9,7.5
		C95.9,38.9,98.6,46.6,97.6,53z"/>
	<path class="st0" d="M87,39c-3.4-3.9-8-5.6-13-5.7c-5.1-0.1-9.6,1.8-13.1,5.5c-1.4,1.4-2.4,3.6-3,5.7c0,0-0.1,0.1-0.1,0.2
		c-2.7,9.5,2,20.4,12.4,22.1c9.9,1.6,18.7-5.6,20.2-15.3C91,47.5,89.8,42.1,87,39z M89.3,52c-0.7,4.3-2.9,7.6-6,10.4
		c-3.4,3.1-7.6,3.8-12.1,3.6c-4.8-0.2-8.3-3.4-10.9-7.2c-1.8-2.7-2.3-5.7-2.2-8.7c0,0,0-0.1,0-0.1c0-0.2,0-0.5,0-0.7
		c0-0.7,0.1-1.5,0.2-2.2c0.5-2.6,1.7-5,3.1-7.1c2.4-3.8,7.5-5.4,11.8-5.6c4.4-0.2,8.7,1.2,12,4.2C88.7,41.8,90,47.4,89.3,52z"/>
	<path class="st0" d="M67.9,55.4c-1.4-1.4-2.3-3.6-2.5-5.6c-0.1-1.7,0.8-3.2,1-4.8c0.1-1,0.6-3.9-1.4-3.8c-1.7,0.1-2.5,1.8-2.8,3.4
		c-1.8,3.6-1.8,9.2-0.3,12.5c0.9,1.9,2.1,4.2,4.3,4.9c1.4,0.4,4,0.7,4.8-1.1C72,58.5,69.5,57,67.9,55.4z M68.3,61.3
		c-0.8,0-1.6-0.2-2.4-0.6c-1.9-1-3-3.6-3.6-5.5c-1.1-3.8-0.3-8.6,1.5-12c0,0,0,0,0,0c0.7-0.9,1.7-1.4,1.8,0.3
		c0.1,1.7-0.9,3.2-1.1,4.8c-0.4,2.9,0.9,5.6,2.8,7.7c0.5,0.6,1,1,1.6,1.6C70,58.6,71.1,60.8,68.3,61.3z"/>
	<path class="st0" d="M79.1,59c-0.5-0.4-1.2-0.3-1.8-0.1c-0.2,0.1-0.4,0.3-0.5,0.4c-0.2,0.1-0.3,0.2-0.4,0.4c-0.3,0.5-0.2,1,0,1.5
		c0.4,1,1.9,1.3,2.7,0.6c0.5-0.4,0.7-0.8,0.8-1.5C79.9,59.9,79.6,59.3,79.1,59z M78.4,61.2c-0.7,0.7-1.6-0.2-1.5-0.9
		c0.3-0.5,1-0.8,1.5-0.5C79.1,60.1,78.8,60.8,78.4,61.2z"/>
	<path class="st0" d="M70.1,36.8c-0.9,0-2.2,0.8-2,1.7c0,0,0,0,0,0c-0.2,0.6,0,1.2,0.5,1.5c1.1,0.7,2.4,0.6,3.1-0.6
		C72.4,38.3,71.3,36.8,70.1,36.8z M70.6,39.2c-0.5,0.5-1.1,0.3-1.6,0.1c-0.5-0.3-0.2-1,0.1-1.4c0.3-0.2,0.7-0.2,1-0.1
		C70.8,38.1,71.2,38.6,70.6,39.2z"/>
	<path class="st0" d="M80.6,73.9c0-0.3-0.2-0.5-0.5-0.5c-0.3,0-0.5,0.1-0.5,0.5c-0.1,2.1,0.3,4.3,0.5,6.3c0.2,1.4,0.3,2.9,0.2,4.4
		c-0.2,2.3-3.4,2.6-5,2.7c-1.2,0-2.2,0.2-3.4-0.1c-1.2-0.3-2.7-0.8-3.1-2.1c-0.2-0.6-0.1-1.5-0.2-2.2c-0.3-2.9,0.5-5.9-0.4-8.8
		c-0.1-0.2-0.4-0.2-0.5,0c-0.5,1.8-0.3,3.8-0.3,5.7c0,1.8,0,3.7,0.3,5.6c0.4,2.8,4.9,3.3,7.1,3.1c2.3-0.2,5.9-0.3,6.5-3.1
		C82,81.7,80.8,77.5,80.6,73.9z"/>
	<path class="st0" d="M81,82.3c-0.6-0.1-0.6,0.8-0.1,0.9c0.7,0.2,1.3,0.5,1.8,1c2.8,2.3-1.8,4.1-2.7,4.4c-1.9,0.7-3.7,1-5.8,1.2
		c-1.9,0.1-4.2-0.2-5.9-1.1c-1.8-1-2.9-4.7-0.4-5.1c0.3-0.1,0.3-0.6,0-0.7c-1.9-0.3-3,2.2-2.8,3.7c0.5,3.4,5.6,4.2,8.2,4.3
		c2.1,0.1,4-0.2,6-0.8c1.5-0.5,3.6-1.2,4.5-2.5C85.6,85.2,83.5,82.6,81,82.3z"/>
	<path class="st0" d="M82.2,114.8c-2.6,2.2-7.6,2-10.7,1c-3.8-1.1-3.9-8.4-4.1-11.6C66.9,98,67,91.6,65.8,85.6
		c-0.1-0.4-0.7-0.3-0.7,0.1c0,4.2,0.5,8.4,0.8,12.6c0.3,4.7,0.6,9.4,1.6,14.1c0.7,3.2,2.7,4.7,5.9,5c2.8,0.3,7.6,0.6,9.4-2.1
		C83.2,114.8,82.6,114.5,82.2,114.8z"/>
	<path class="st0" d="M85.5,105.1c-0.4-6.8-0.1-13.5-1-20.3c-0.1-0.4-0.6-0.4-0.6,0c-0.3,2.7,0.2,5.6,0.3,8.3c0.1,2.1-0.1,4.2,0,6.3
		c0.2,2.9,0.2,5.9,0.3,8.9c0.1,4-0.8,6.9-5,7.9c-0.4,0.1-0.3,0.7,0.1,0.7C86.1,117.3,85.8,109.6,85.5,105.1z"/>
	<path class="st0" d="M87.1,37.2c-7.1-7.1-21.2-6.9-27.8,0.9c-0.3,0.4,0.2,0.9,0.5,0.5c6.4-7.5,19.8-7.6,26.7-0.9
		c3.5,3.4,4.5,7.5,4.5,12.3c0,4.9-2.2,8.8-5.2,12.5c-0.4,0.4,0.2,1.1,0.6,0.6c3.3-3.6,5-7.6,5.4-12.4C92.5,45.6,90.8,40.8,87.1,37.2
		z"/>
	<path class="st0" d="M80,66.6c-3.8,0.9-6.8,1.5-10.7,0.9C65.1,67,61.1,64,59,60.3c-2.5-4.2-3.1-9-2.4-13.8c0.3-2.1,1.1-4.3,2-6.2
		c0.3-0.5,1.1-1.7,1.3-2.1c0.2-0.5-0.4-0.4-0.8,0c-0.7,0.7-1.5,2.2-1.8,2.8c-0.9,2.3-1.6,4.6-1.9,7c-0.5,5,0.6,9.9,3.5,14.1
		c4.3,6.2,14.5,8.9,21.2,5.2C80.6,67.1,80.3,66.5,80,66.6z"/>
	<path class="st0" d="M87.3,61.1c-1.5,1.1-2.7,2.6-4.3,3.7c-1.6,1.1-3.3,1.9-5.2,2.5c-0.4,0.1-0.3,0.6,0.1,0.6c2,0.1,4-1.3,5.6-2.3
		c1.6-1,3.7-2.3,4.2-4.2C87.8,61.2,87.5,60.9,87.3,61.1z"/>
</g>
</svg>
